<svg xmlns="http://www.w3.org/2000/svg" viewBox="0 0 200 200"><defs><style>.cls-1{fill:#fefefe;}.cls-2{fill:#929c6a;}.cls-3{fill:#97a06d;}.cls-4{fill:#929d6a;}.cls-5{fill:#929c69;}.cls-6{fill:#98a06e;}.cls-7{fill:#97a071;}.cls-8{fill:#939e69;}.cls-9{fill:#9aa172;}.cls-10{fill:#98a16f;}.cls-11{fill:#fdfdfd;}.cls-12{fill:#9fa37a;}.cls-13{fill:#97a06f;}.cls-14{fill:#9ba176;}.cls-15{fill:#949e6a;}.cls-16{fill:#949f6c;}.cls-17{fill:#fbfbfb;}.cls-18{fill:#26252d;}.cls-19{fill:#434247;}.cls-20{fill:#323033;}.cls-21{fill:#2f2e31;}.cls-22{fill:#48484a;}.cls-23{fill:#302f30;}.cls-24{fill:#2a2a2e;}.cls-25{fill:#2f2f33;}.cls-26{fill:#343538;}.cls-27{fill:#f4f4f4;}.cls-28{fill:#363336;}.cls-29{fill:#1c1c1f;}.cls-30{fill:#3e4048;}.cls-31{fill:#272727;}.cls-32{fill:#f9f9f8;}.cls-33{fill:#49494c;}.cls-34{fill:#39383c;}.cls-35{fill:#3b3a3f;}.cls-36{fill:#3d3d44;}.cls-37{fill:#2b2a2e;}.cls-38{fill:#18191c;}.cls-39{fill:#a0a77f;}.cls-40{fill:#5f5f61;}.cls-41{fill:#efefee;}.cls-42{fill:#302e31;}.cls-43{fill:#eff0ee;}.cls-44{fill:#3a3a3d;}.cls-45{fill:#525153;}.cls-46{fill:#1b1b1e;}.cls-47{fill:#899367;}.cls-48{fill:#8c946e;}.cls-49{fill:#8b9561;}.cls-50{fill:#252527;}.cls-51{fill:#9ea879;}.cls-52{fill:#69686c;}.cls-53{fill:#2e2f34;}.cls-54{fill:#919192;}.cls-55{fill:#434143;}.cls-56{fill:#2e2e30;}.cls-57{fill:#2e2d30;}.cls-58{fill:#d6dccd;}.cls-59{fill:#18161b;}.cls-60{fill:#424046;}.cls-61{fill:#c2c8ac;}.cls-62{fill:#454547;}.cls-63{fill:#393a3c;}.cls-64{fill:#5c5c5d;}.cls-65{fill:#0c0c0f;}.cls-66{fill:#3c393d;}.cls-67{fill:#333235;}.cls-68{fill:#1a171a;}.cls-69{fill:#58565a;}.cls-70{fill:#121216;}.cls-71{fill:#4a494c;}.cls-72{fill:#45444a;}.cls-73{fill:#302f33;}.cls-74{fill:#adaf9a;}.cls-75{fill:#4c4c50;}.cls-76{fill:#18181c;}.cls-77{fill:#423f46;}.cls-78{fill:#5b5a5c;}.cls-79{fill:#8b9866;}.cls-80{fill:#514f51;}.cls-81{fill:#181719;}.cls-82{fill:#232326;}.cls-83{fill:#252528;}.cls-84{fill:#a4ad85;}.cls-85{fill:#4e4b4d;}.cls-86{fill:#e9ebe3;}.cls-87{fill:#a7b38b;}.cls-88{fill:#9ca880;}.cls-89{fill:#4d4e50;}.cls-90{fill:#3b393b;}.cls-91{fill:#aeb390;}.cls-92{fill:#3f3e44;}.cls-93{fill:#49484c;}.cls-94{fill:#151517;}.cls-95{fill:#1f1d23;}.cls-96{fill:#282728;}.cls-97{fill:#0f0d15;}.cls-98{fill:#16161f;}.cls-99{fill:#13131d;}.cls-100{fill:#a4ae8d;}.cls-101{fill:#3b3a3e;}.cls-102{fill:#151516;}.cls-103{fill:#959b7b;}.cls-104{fill:#a5b18b;}.cls-105{fill:#17181d;}.cls-106{fill:#2a292f;}.cls-107{fill:#1e1d20;}.cls-108{fill:#a2a780;}.cls-109{fill:#9ca87f;}.cls-110{fill:#2b2830;}.cls-111{fill:#020204;}.cls-112{fill:#899564;}.cls-113{fill:#2e2d32;}.cls-114{fill:#0f0f12;}.cls-115{fill:#242526;}.cls-116{fill:#49474a;}.cls-117{fill:#19181b;}.cls-118{fill:#2d2f30;}.cls-119{fill:#33363a;}.cls-120{fill:#38393e;}.cls-121{fill:#8b996a;}.cls-122{fill:#37373b;}.cls-123{fill:#2f2f32;}.cls-124{fill:#1d1e20;}</style></defs><g id="图层_2" data-name="图层 2"><g id="图层_1-2" data-name="图层 1"><path class="cls-1" d="M0,0H200V200H0Z"/><path class="cls-2" d="M103.52,87.32a16.78,16.78,0,0,1,4.53,3.05q.33.3.66.57a5.23,5.23,0,0,1,1.69,2.46l.11.35a8.13,8.13,0,0,1,.14,1.78,11.16,11.16,0,0,0,.21,2.23,3.68,3.68,0,0,1,0,.74c-.65-.12-1.3-.27-1.94-.44-.38-.1-.77-.18-1.16-.25a7.66,7.66,0,0,1-2.9-1l-.25-.15c-1.88-1.3-2.82-4.13-3.65-6.15l-.15-.37a3.19,3.19,0,0,1-.16-2.33C101.46,86.79,102.45,86.88,103.52,87.32Z"/><path class="cls-3" d="M76.16,110a4.74,4.74,0,0,1,2.24,2.37l.16.34a6.27,6.27,0,0,1-.1,4,6.45,6.45,0,0,1-1.26,1.59l-.18.18a4.3,4.3,0,0,1-3.32,1,3.62,3.62,0,0,1-2.5-1.13,6,6,0,0,1-1.32-4.62,3.83,3.83,0,0,1,.52-1.58l.14-.25A4.65,4.65,0,0,1,76.16,110Z"/><path class="cls-4" d="M97.91,85.78A2.67,2.67,0,0,1,98.7,87a3.58,3.58,0,0,1-1.2,2.3l-.3.1v.2c-.21.15-.43.28-.65.41l-.2.12a10.66,10.66,0,0,1-8.23,1.43A15,15,0,0,1,85,90.4v-.3a3.84,3.84,0,0,1,.54-.37l.3-.19c.26-.14.26-.14.46-.14v-.2a3,3,0,0,1,.35-.31c.39-.33.74-.68,1.1-1C90.08,85.44,94.88,83.32,97.91,85.78Z"/><path class="cls-5" d="M103.4,70.9a2.61,2.61,0,0,1,.57.79c.22.41.45.81.68,1.21l.19.31c.12.2.24.41.37.61A6.91,6.91,0,0,1,106,75.6l.07.26a10.65,10.65,0,0,1-.57,4.94l-.07.21a7,7,0,0,1-3.33,3.59,2.07,2.07,0,0,1-.5,0,11.59,11.59,0,0,1-1.14-3.53c-.11-.55-.23-1.09-.37-1.63a6.47,6.47,0,0,1,.33-5A9.89,9.89,0,0,1,102,72.47C102.52,72,103,71.43,103.4,70.9Z"/><path class="cls-6" d="M128.2,110.1l2.08,0h2a3.75,3.75,0,0,1,2.26.64l.18.2.18.19a3.06,3.06,0,0,1,.5,2.32,3,3,0,0,1-1.2,1.75,4.62,4.62,0,0,1-2.67.66h-.66v2.4h1v.9h-3.8c0-.6,0-.6.23-.84a.75.75,0,0,1,.57-.16l.1-7h-.8Z"/><path class="cls-7" d="M89.6,110.1c.53,0,1.06-.06,1.59,0h.26a1.14,1.14,0,0,1,.67.36c.1.16.19.32.28.48l.43.57.23.31c.7.94,1.42,1.86,2.14,2.78l.5.64.18.23.16.21.15.2a.43.43,0,0,1,.11.36h.2v-5.1h-.7l-.3-.1v-.9h3l-.1.7a.91.91,0,0,1-.4.18.89.89,0,0,0-.4.32,7.38,7.38,0,0,0-.1,1.76v.52c0,.46,0,.91,0,1.37v1.4c0,.92,0,1.83,0,2.75a1.29,1.29,0,0,1-1,.1,5.36,5.36,0,0,1-.9-1l-.15-.19-.82-1.08-.9-1.16c-.44-.56-.88-1.12-1.31-1.69l-.62-.78-.1,4.9h.9v.9h-3c.1-.7.1-.7.34-.89l.26-.11.2-.1.1-7h-.9Z"/><path class="cls-8" d="M113.56,83.72a9,9,0,0,0,1.44.58c-.12.37-.22.4-.56.59-.58.36-1.12.76-1.67,1.18a5.75,5.75,0,0,1-1.91,1.05l-.31.1a10.84,10.84,0,0,1-2.48.2h-.32a4.39,4.39,0,0,1-3-.82l-.24-.17a3.52,3.52,0,0,1-.56-.53,1.94,1.94,0,0,1,.52-1.38,4.61,4.61,0,0,1,1.81-1.34l.21-.1C108.9,82,111.29,82.44,113.56,83.72Z"/><path class="cls-9" d="M107.1,109.7V113h-.7l-.08-.24a2.94,2.94,0,0,0-1.43-1.75,3.34,3.34,0,0,0-1.69-.11,3.5,3.5,0,0,0-1.61,1.95,5.86,5.86,0,0,0-.13,1.51v.32a4.24,4.24,0,0,0,.84,2.82,2.14,2.14,0,0,0,1.72.73h.38a5,5,0,0,0,1.3-.23l.1-2.4H105l-.1-.1v-.9h3.4v.8c-.57.3-.57.3-.8.3v2.9c-3.93,1.31-3.93,1.31-5.6.58a4.91,4.91,0,0,1-2.4-2.88,6.25,6.25,0,0,1,.56-4.49,4.91,4.91,0,0,1,2.53-2,8.21,8.21,0,0,1,3.61.36l0-.19.06-.21C106.5,109.7,106.5,109.7,107.1,109.7Z"/><path class="cls-10" d="M85.7,110h2.42a1.38,1.38,0,0,1,.58.11v.7c-.58.3-.58.3-.8.3v.19l0,1.93c0,.24,0,.49,0,.73s0,.69,0,1v.32a4.73,4.73,0,0,1-1,3.18,4.41,4.41,0,0,1-3.31,1,2.93,2.93,0,0,1-2.07-1,5.28,5.28,0,0,1-1-3.48v-.34c0-.36,0-.71,0-1.07v-.72c0-.59,0-1.18,0-1.77h-.34c-.36,0-.36,0-.46-.11v-.9h3.7c-.1.6-.1.6-.28.75l-.22.12a.92.92,0,0,0-.47.57,6.76,6.76,0,0,0,0,.9v.33c0,.23,0,.47,0,.7s0,.71,0,1.06,0,.45,0,.68v.31a3.81,3.81,0,0,0,.57,2.22,2.24,2.24,0,0,0,1.76.59,2.08,2.08,0,0,0,1.42-.83,5.7,5.7,0,0,0,.43-2.55v-.34c0-.35,0-.7,0-1s0-.47,0-.71l0-1.75h-.39a1,1,0,0,1-.61-.11Z"/><path class="cls-11" d="M75.15,110.89a3.14,3.14,0,0,1,1.4,1.7,6.93,6.93,0,0,1-.39,4.85,2.52,2.52,0,0,1-1.06,1,2.55,2.55,0,0,1-1.9-.3,4.15,4.15,0,0,1-1.32-2.74c-.08-2.8-.08-2.8.76-3.92l.26-.24.24-.24A2.74,2.74,0,0,1,75.15,110.89Z"/><path class="cls-12" d="M112.5,110h6.15c.25,0,.25,0,.35.11s0,.37,0,.56v1.94h-.8c-.1-.31-.2-.61-.28-.92a.92.92,0,0,0-.62-.58,3.42,3.42,0,0,0-1.06-.12h-.35l-.29,0a1.47,1.47,0,0,0-.24,1v.2c0,.21,0,.42,0,.63s0,.29,0,.43l0,1,1.2-.1.1-.9h.9v3h-.9l-.2-.9-1.1-.2.1,2.9.9.1v.9h-3.8v-.7a1,1,0,0,1,.8-.3l.1-7.1h-.9Z"/><path class="cls-13" d="M62.09,110h2a2.4,2.4,0,0,1,.71.11,2.35,2.35,0,0,1-.1.6,1.85,1.85,0,0,1-.5.3l-.3.2a1.48,1.48,0,0,0,.35,1.13l.11.18.34.56.34.56c.11.17.21.34.31.51s.15.26.15.46h.2l.08-.26a7.39,7.39,0,0,1,.42-1l.17-.35.28-.53c.09-.18.17-.35.26-.52l.16-.32a2.53,2.53,0,0,0,.23-.67H67c-.36,0-.36,0-.46-.11v-.8h3c0,.5,0,.5-.15.68l-.19.15-.19.16a.46.46,0,0,1-.37.11l-.08.16c-.12.25-.26.49-.4.73s-.33.57-.48.86l-.29.51a7.9,7.9,0,0,0-1,4.64h.8c.1.1.1.1.1,1H63.4c.1-.6.1-.6.34-.83a3.12,3.12,0,0,1,.46-.27,3.34,3.34,0,0,0-.06-2.37c-.18-.32-.38-.62-.59-.92s-.55-.84-.81-1.27l-.17-.27c-.37-.6-.71-1.21-1-1.84a1,1,0,0,0-.55-.43,1.45,1.45,0,0,1-.1-.8A4.76,4.76,0,0,1,62.09,110Z"/><path class="cls-14" d="M119.4,110h7.8a16.87,16.87,0,0,1,.11,2.23V113h-.7c-.1-.28-.19-.57-.27-.86l-.07-.26-.06-.26c-.08-.23-.08-.23-.29-.34a7.4,7.4,0,0,0-1.61-.38v7.3h.9v.9h-3.7v-.7l.8-.4.1-7.1c-1.16.1-1.16.1-1.9.7a3.61,3.61,0,0,0-.16.87l0,.3,0,.23h-.9Z"/><path class="cls-15" d="M94.8,78.3c2,.58,3.4,1.21,4.44,3.08a3.17,3.17,0,0,1,.46,2.22c-.19.49-.19.49-.4.7a3.11,3.11,0,0,1-2.45-.48A6,6,0,0,1,95.2,81.9l-.12-.21a3.77,3.77,0,0,1-.21-1.42v-.35l0-.36v-.37Z"/><path class="cls-16" d="M99.8,89.4a8.18,8.18,0,0,1,.55,3.28v.75a6.09,6.09,0,0,1-.64,3.08l-.15.27a1,1,0,0,1-.56.42,6.44,6.44,0,0,1-1.62-4.8A4.14,4.14,0,0,1,99,89.8C99.55,89.4,99.55,89.4,99.8,89.4Z"/><path class="cls-17" d="M126.94,128.19a2.44,2.44,0,0,1,.91,1.32,2.58,2.58,0,0,1-.45,1.49,2.13,2.13,0,0,1-1.78.53,1.41,1.41,0,0,1-1.07-.6,2.11,2.11,0,0,1-.41-1.46,2.07,2.07,0,0,1,.89-1.24A2.84,2.84,0,0,1,126.94,128.19Z"/><path class="cls-17" d="M84.2,128.1l1,0h.27a1.79,1.79,0,0,1,1.41.48,1.48,1.48,0,0,1,.53,1.24,1.65,1.65,0,0,1-.56,1.38,2.67,2.67,0,0,1-1.68.41h-.27l-.65,0-.1-.3.2-.1c0-.39,0-.79,0-1.18v-1.33A1.11,1.11,0,0,0,84.2,128.1Z"/><path class="cls-11" d="M131.93,110.88h.47v.2l.17,0a1.86,1.86,0,0,1,.73.48,3.15,3.15,0,0,1,0,2.3,1.43,1.43,0,0,1-.8.8,4.36,4.36,0,0,1-1.08.11h-.52l0-1.52c0-.17,0-.35,0-.52s0-.5,0-.74v-.24a2.42,2.42,0,0,1,.06-.58A1.25,1.25,0,0,1,131.93,110.88Z"/><path class="cls-18" d="M100,128.1l.86,0h.25a2.05,2.05,0,0,1,1.29.33,1.45,1.45,0,0,1,.2,1.2,1.6,1.6,0,0,1-1.2.7h-.7c0,.15,0,.3,0,.44l0,.25,0,.21.2.1v.2h-1l.2-.4a3.24,3.24,0,0,0,0-.63v-1.13c0-.31,0-.63,0-.94l-.2-.1Z"/><path class="cls-19" d="M116.8,128.1l.86,0h.25a2.05,2.05,0,0,1,1.29.33,1.37,1.37,0,0,1,.24,1c0,.22,0,.22-.3.51a2.5,2.5,0,0,1-1.64.41c0,.14,0,.29,0,.43l0,.24a1.64,1.64,0,0,0,.13.53h-.9v-.2l.2-.1v-2.8l-.2-.1Z"/><path class="cls-20" d="M120.6,128.1l.92,0,.26,0a1.68,1.68,0,0,1,1,.22.82.82,0,0,1,.26.56.81.81,0,0,1-.38.66,1.64,1.64,0,0,0-.29.3,1.8,1.8,0,0,0,.5,1.3c.13.14.26.27.4.4a1.65,1.65,0,0,1-.7,0,3.56,3.56,0,0,1-.64-1.14l-.16-.26-.6-.1.1,1.5h-.7l.05-.16a4.1,4.1,0,0,0,.06-.86v-1.8A1.09,1.09,0,0,0,120.6,128.1Z"/><path class="cls-21" d="M84.2,128.1l1,0h.27a1.79,1.79,0,0,1,1.41.48,1.48,1.48,0,0,1,.53,1.24,1.65,1.65,0,0,1-.56,1.38,2.67,2.67,0,0,1-1.68.41h-.27l-.65,0-.1-.3.2-.1c0-.39,0-.79,0-1.18v-1.33A1.11,1.11,0,0,0,84.2,128.1Zm.6.2v3c1.18.11,1.18.11,1.66-.21a2,2,0,0,0,.57-1.5,2.11,2.11,0,0,0-.57-1.08C86,128.19,86,128.19,84.8,128.3Z"/><path class="cls-22" d="M76.9,128.1h.3l.08.22c.61,1.61.61,1.61,1.32,3.18h-.9v-.2h.2l-.2-.9H76.3l-.3.9h.2v.2h-.7v-.2h.2l0-.16C76.09,130.11,76.47,129.1,76.9,128.1Z"/><path class="cls-23" d="M106,128.1a1.25,1.25,0,0,1,1,.58l.15.2.16.22.18.23c.56.75.56.75,1.16,1.47h.1c0-.39,0-.79,0-1.18l0-.34v-.63a1.17,1.17,0,0,0-.12-.55h.7l-.1.3c0,.24,0,.47,0,.71v.2c0,.22,0,.44,0,.66v.44l0,1.09c-.4,0-.4,0-.55-.14l-.15-.2-.16-.21-.17-.24-.18-.23c-.36-.5-.72-1-1.05-1.51-.14-.2-.14-.2-.44-.27l.1,2.6h.2v.3l-.7-.1,0-.16a9.49,9.49,0,0,0,.11-1.6l0-.37v-.69A1,1,0,0,0,106,128.1Z"/><path class="cls-24" d="M97.3,128.1c.3.1.3.1.42.31a18.51,18.51,0,0,1,.68,1.8,8.88,8.88,0,0,0,.6,1.29h-.8v-.3a1.5,1.5,0,0,0-.2-.9l-.66-.06-.36,0-.28,0a3.19,3.19,0,0,0-.2,1.3h-.6c0-.3,0-.3.14-.44l.16-.16a2.09,2.09,0,0,0,.17-.41l.09-.25.08-.25C96.77,129.34,97,128.72,97.3,128.1Z"/><path class="cls-25" d="M126.94,128.19a2.44,2.44,0,0,1,.91,1.32,2.58,2.58,0,0,1-.45,1.49,2.13,2.13,0,0,1-1.78.53,1.41,1.41,0,0,1-1.07-.6,2.11,2.11,0,0,1-.41-1.46,2.07,2.07,0,0,1,.89-1.24A2.84,2.84,0,0,1,126.94,128.19Zm-2.14.61a1.89,1.89,0,0,0-.2,1.3,1.81,1.81,0,0,0,.8,1.2,2.38,2.38,0,0,0,1.4-.09,1.55,1.55,0,0,0,.6-.91,2.1,2.1,0,0,0-.4-1.7,1.53,1.53,0,0,0-1.31-.34A1.2,1.2,0,0,0,124.8,128.8Z"/><path class="cls-26" d="M112.48,128.08h.3l.72,0v1h-.2l-.3-.7-.73,0-.2,0a1.07,1.07,0,0,0-.81.23,1.61,1.61,0,0,0-.29,1.14v.39a1.66,1.66,0,0,0,.44,1,1.83,1.83,0,0,0,.9.12h.38c.33,0,.33,0,.52-.22a4.37,4.37,0,0,0-.1-1.3h.7c-.08,1.39-.08,1.39-.47,1.74a2.11,2.11,0,0,1-.43.06l-.36,0a2.2,2.2,0,0,1-1.74-.43,2.55,2.55,0,0,1-.3-1.9C110.83,128.18,111.53,128,112.48,128.08Z"/><path class="cls-27" d="M101.23,128.27a1.44,1.44,0,0,1,.84.18,1.47,1.47,0,0,1,.13,1.05,1.17,1.17,0,0,1-.58.58,7.07,7.07,0,0,1-.92,0,2.05,2.05,0,0,1-.11-1v-.21C100.59,128.32,100.62,128.28,101.23,128.27Z"/><path class="cls-27" d="M118,128.27a1.44,1.44,0,0,1,.84.18,1.42,1.42,0,0,1,.13,1.05,1.46,1.46,0,0,1-.8.6h-.7a2.05,2.05,0,0,1-.11-1v-.21C117.39,128.32,117.42,128.28,118,128.27Z"/><path class="cls-28" d="M89.77,128.07H90c.57,0,.57,0,.69.13,0,.27,0,.53,0,.8h-.2l-.09-.24c-.08-.27-.08-.27-.31-.36h-.77a.52.52,0,0,0-.43.11,1.46,1.46,0,0,0,.1.7,2.36,2.36,0,0,0,.74.42c.83.4.83.4,1.06.68a2.06,2.06,0,0,1,0,.7,1.52,1.52,0,0,1-.6.5h-1c-.56,0-.56,0-.67-.11v-.7h.2l.12.25c.16.28.16.28.47.3h.65c.25,0,.25,0,.36-.13a1,1,0,0,0,0-.7,3.47,3.47,0,0,0-.8-.5l-.44-.27-.19-.12a1.55,1.55,0,0,1-.37-.31,1.18,1.18,0,0,1,.15-.92A1.56,1.56,0,0,1,89.77,128.07Z"/><path class="cls-29" d="M95,128.2v.9c-.27-.14-.34-.34-.5-.6a2.46,2.46,0,0,0-1.4-.1,2.7,2.7,0,0,0-.7.8,2.14,2.14,0,0,0,.3,1.6,1,1,0,0,0,.74.43A2.49,2.49,0,0,0,94.7,131H95v.2a3.71,3.71,0,0,1-2,.3,2.11,2.11,0,0,1-1-1,2.19,2.19,0,0,1,.1-1.61C92.68,127.79,94,128,95,128.2Z"/><path class="cls-30" d="M72.3,128.1h1l-.1.2H73v3l1.4-.1.3-.6h.1c0,.62,0,.62,0,.8s-.1.1-.33.11H72.3v-.2l.2-.1.1-2.9h-.3Z"/><path class="cls-31" d="M79.7,128.1a1,1,0,0,1,.74.33l.24.31.13.16c.35.44.69.89,1,1.35a2.37,2.37,0,0,0,.78.85v.3a.84.84,0,0,1-.59-.29l-.18-.25-.21-.28-.22-.28-.42-.53-.38-.47-.22-.27c-.18-.23-.18-.23-.18-.43H80l.1.3,0,.52v.31l0,.64V131a1.16,1.16,0,0,0,.12.54h-.7v-.2l.2-.1c0-.39,0-.79,0-1.18v-1.33A1.11,1.11,0,0,0,79.7,128.1Z"/><path class="cls-32" d="M121.73,128.27a1.67,1.67,0,0,1,.73.14.82.82,0,0,1,.2.48,1.13,1.13,0,0,1-.25.6,1.55,1.55,0,0,1-1.21.21c0-.21,0-.43,0-.64v-.37C121.21,128.25,121.32,128.28,121.73,128.27Z"/><path class="cls-33" d="M103.8,128.1h.8l-.1.3c0,.22,0,.44,0,.65V131a1.13,1.13,0,0,0,.11.6h-.8l0-.16a4.34,4.34,0,0,0,.06-.88v-1.88A1.09,1.09,0,0,0,103.8,128.1Z"/><path class="cls-34" d="M113.1,129.7h.7c-.08,1.39-.08,1.39-.47,1.74a2.11,2.11,0,0,1-.43.06l-.36,0a2.16,2.16,0,0,1-1.74-.43,1.23,1.23,0,0,1-.2-.4l.2-.2h.2c.14.2.27.4.4.6a1.83,1.83,0,0,0,.9.12h.38c.33,0,.33,0,.52-.22A4.37,4.37,0,0,0,113.1,129.7Z"/><path class="cls-35" d="M125.32,128.24l.18.06-.45.35a1.27,1.27,0,0,0-.39,1,2.54,2.54,0,0,0,.44,1.38,1.53,1.53,0,0,0,.6.3v.1a1.09,1.09,0,0,1-.92-.21,1.93,1.93,0,0,1-.64-1.43,1.82,1.82,0,0,1,.66-1.36C125.1,128.2,125.1,128.2,125.32,128.24Z"/><path class="cls-18" d="M117.1,128.2h.4v.33a9.25,9.25,0,0,0,.2,3h-.9v-.2l.2-.1Z"/><path class="cls-36" d="M100,128.1l.86,0h.25a2.05,2.05,0,0,1,1.29.33,1.45,1.45,0,0,1,.2,1.2,1.6,1.6,0,0,1-1.2.7h-.7v-.2l.23,0,.3,0,.3,0a.77.77,0,0,0,.57-.48,2.39,2.39,0,0,0,0-.8.66.66,0,0,0-.5-.34h-1l-.63,0Z"/><path class="cls-37" d="M121.1,128.5l0,.2,0,.28,0,.26a1.45,1.45,0,0,0,.08.45,4.51,4.51,0,0,1,.06,1v.77h-.7l.05-.16a4.58,4.58,0,0,0,.08-.83v-.33l0-.35v-.36l0-.87C121,128.5,121,128.5,121.1,128.5Z"/><path class="cls-38" d="M84.2,128.1l.7.1-.1.2c0,.23,0,.46,0,.7v.21c0,.21,0,.43,0,.65v.45l0,1.09h-.6v-.2l.2-.1c0-.39,0-.79,0-1.18v-1.33A1.11,1.11,0,0,0,84.2,128.1Z"/><path class="cls-39" d="M85.7,110h2.7v.1H85.8v.8l.22-.06c.28,0,.28,0,.78.16v5.5l-.2.1.1-5.5h-.8l-.2-.1Z"/><path class="cls-40" d="M108.5,128.1h.7l-.1.3c0,.24,0,.47,0,.71v.2c0,.22,0,.44,0,.66v.44l0,1.09-.4-.1h.3v-.3h-.3l.1-.3c0-.18,0-.36,0-.54v-.32l0-.34v-.34A4.11,4.11,0,0,0,108.5,128.1Z"/><path class="cls-41" d="M76.9,128.6a1.12,1.12,0,0,1,.52.75l.1.3a1,1,0,0,1,.08.45H76.4A4.5,4.5,0,0,1,76.9,128.6Z"/><path class="cls-42" d="M122.1,129.6a1.11,1.11,0,0,1,.33.63,1.88,1.88,0,0,0,.67,1l.2.3a1.65,1.65,0,0,1-.7,0,3.56,3.56,0,0,1-.64-1.14c-.14-.29-.14-.29-.48-.35h-.28l.1-.3A3.88,3.88,0,0,1,122.1,129.6Z"/><path class="cls-43" d="M97.3,128.7a1.78,1.78,0,0,1,.6.9v.5H96.8a4,4,0,0,1,.31-1l.11-.24Z"/><path class="cls-44" d="M97.3,128.1c.3.1.3.1.44.32A2.21,2.21,0,0,1,98,130.1h-.1l-.06-.21-.07-.27-.08-.27c-.08-.28-.08-.28-.39-.55l-.4,1h-.2C96.89,129.23,97.09,128.66,97.3,128.1Z"/><path class="cls-45" d="M89.77,128.07H90c.57,0,.57,0,.69.13,0,.27,0,.53,0,.8h-.2l-.09-.24c-.08-.27-.08-.27-.31-.36h-.77a.52.52,0,0,0-.43.11l0,.24c-.06.26-.06.26-.36.46,0-.63,0-.63.15-.92A1.56,1.56,0,0,1,89.77,128.07Z"/><path class="cls-46" d="M103.8,128.1h.8l-.1.21a2.79,2.79,0,0,0-.14.91v1.08l0,.9-.3-.2a3.21,3.21,0,0,1,0-.58v-.71c0-.24,0-.48,0-.72v-.32A1.2,1.2,0,0,0,103.8,128.1Z"/><path class="cls-47" d="M131.7,118.3h.1v.8h-3.6l.1-.3.16,0a18.29,18.29,0,0,0,3.14,0Z"/><path class="cls-48" d="M116.3,118.9v.2h-3.7v-.2l1.39-.05h.47l.68,0h.21A2.55,2.55,0,0,1,116.3,118.9Z"/><path class="cls-49" d="M66.9,118.7h.2v.4H64.34a4,4,0,0,1-.84-.11v-.1h3.4Z"/><path class="cls-50" d="M79.9,128.5l.3.1H80l.1.3,0,.52v.31l0,.64V131a1.16,1.16,0,0,0,.12.54h-.7v-.2l.2-.1Z"/><path class="cls-51" d="M130.9,118.2h1v.9l-.2-.3-.1.1h-.7Z"/><path class="cls-52" d="M111.4,128.1h2.1v1h-.2l-.3-.7h-.27l-.36,0-.36,0A1,1,0,0,1,111.4,128.1Z"/><path class="cls-53" d="M113.1,129.7h.7l-.2,1.5-.4.1v-.81A4.18,4.18,0,0,0,113.1,129.7Z"/><path class="cls-54" d="M84.7,128.4h.1v2.9h1l.3.2-1.9.1v-.1h.5Z"/><path class="cls-55" d="M106.1,128.9h.1l.2,2.4h.2v.3l-.7-.1,0-.17a4.65,4.65,0,0,0,.08-.75v-.3l0-.3v-.32Z"/><path class="cls-56" d="M82.2,128.1h.7l-.1.3c0,.2,0,.4,0,.6l0,.35,0,.37,0,.37c0,.3,0,.61-.07.91h-.1l-.1-2.6-.2-.1Z"/><path class="cls-57" d="M125.33,128.23l.17.07-.28.21a2.23,2.23,0,0,0-.72,1.59h-.2a2.2,2.2,0,0,1,.18-1.34C125,128.18,125,128.18,125.33,128.23Z"/><path class="cls-58" d="M131.93,110.88h.47v.1H132l-.24,0a1,1,0,0,0-.64.46,4.87,4.87,0,0,0-.06.76v.22c0,.23,0,.46,0,.69v.48c0,.38,0,.77,0,1.15h-.1l0-1.52c0-.17,0-.35,0-.52s0-.5,0-.74v-.24a2.42,2.42,0,0,1,.06-.58A1.25,1.25,0,0,1,131.93,110.88Z"/><path class="cls-59" d="M120.8,129.2h.1l.1.9h.1l0,.2,0,.28,0,.26a4.81,4.81,0,0,0,.13.66h-.7l.05-.17a3.94,3.94,0,0,0,.08-.68v-.26l0-.27v-.26Z"/><path class="cls-60" d="M93,128.1a12.13,12.13,0,0,1,2,.1v.9c-.27-.14-.34-.34-.5-.6a2.66,2.66,0,0,0-1-.16A.56.56,0,0,1,93,128.1Z"/><path class="cls-61" d="M85.7,110h2.7v.1H85.8v.8l.23-.06a.83.83,0,0,1,.57.06v.2c-.67,0-.67,0-.9-.1Z"/><path class="cls-62" d="M127.3,130.3a2.37,2.37,0,0,1,.1.7,1.77,1.77,0,0,1-1.47.51h-.63a1.67,1.67,0,0,1,.84-.24,1.25,1.25,0,0,0,1-.46A2,2,0,0,0,127.3,130.3Z"/><path class="cls-63" d="M76.9,128.1h.3l.25.61.14.35a2.3,2.3,0,0,1,.11.94c-.3-.15-.33-.37-.46-.67l-.13-.31A4.23,4.23,0,0,1,76.9,128.1Z"/><path class="cls-64" d="M74.7,130.6h.1c0,.62,0,.62,0,.8s-.1.1-.48.11H73v-.2h1.06c.37-.05.37-.05.53-.39Z"/><path class="cls-65" d="M84.6,128.5h.1v3h-.6v-.2l.2-.1a1.63,1.63,0,0,0,.24-.94v-1Z"/><path class="cls-66" d="M88.5,130.7h.2l.12.24c.16.29.16.29.47.35l.33,0,.33,0,.25,0v.1H88.6c-.1-.1-.1-.1-.11-.46Z"/><path class="cls-67" d="M122.6,128.5h.4c.07.6.07.6-.13.88a3.8,3.8,0,0,1-.47.42h-.2c.19-.49.19-.49.3-.6S122.57,128.73,122.6,128.5Z"/><path class="cls-68" d="M88.6,128.6l.1.4h.2l.4.4a2.48,2.48,0,0,0,.4.2v.3a2,2,0,0,1-1.1-.6A2.72,2.72,0,0,1,88.6,128.6Z"/><path class="cls-69" d="M122.1,129.6c.2.2.2.2.2.6l-.4.1-.1-.2a3.13,3.13,0,0,0-.6-.1l.1-.3A3.88,3.88,0,0,1,122.1,129.6Z"/><path class="cls-70" d="M110.8,129.3l.1,1.4h-.3a1.5,1.5,0,0,1-.11-.76v-.54C110.7,129.3,110.7,129.3,110.8,129.3Z"/><path class="cls-71" d="M118.9,129.5l.1.2.2.1a2.32,2.32,0,0,1-1.7.5v-.2l.2,0A1.54,1.54,0,0,0,118.9,129.5Z"/><path class="cls-72" d="M100.6,130.4h.1l.06.62,0,.18.2.1v.2h-1l.2-.4.3.1Z"/><path class="cls-73" d="M93.2,128.2l-.28.33-.16.19c-.15.17-.3.32-.46.48l-.2-.1C92.3,128.51,92.53,128.13,93.2,128.2Z"/><path class="cls-74" d="M118.9,110.1h.1v2.5h-.8l.19-.09a.85.85,0,0,0,.41-.31,1.79,1.79,0,0,0,0-.48v-.88Z"/><path class="cls-75" d="M102.1,129.5l.2.4a2.44,2.44,0,0,1-1.6.4v-.2l.23,0,.3,0,.3,0A.81.81,0,0,0,102.1,129.5Z"/><path class="cls-76" d="M127.6,129.3h.2a2.61,2.61,0,0,1-.3,1.5l-.2-.1Z"/><path class="cls-77" d="M95,131v.2a4.27,4.27,0,0,1-2,.3,2.71,2.71,0,0,1,1-.31A7.58,7.58,0,0,1,95,131Z"/><path class="cls-78" d="M97.3,128.1l.3.1c-.14.37-.3.72-.46,1.08l-.14.3-.1.22h-.2C96.89,129.23,97.09,128.66,97.3,128.1Z"/><path class="cls-79" d="M79.7,110.1h1.2a3,3,0,0,1-.9.3l-.1.7-.2-.1Z"/><path class="cls-80" d="M125.3,128.1h1a2,2,0,0,1,.83.22l-.3.3-.2-.2a3.12,3.12,0,0,0-.55-.05C125.52,128.32,125.52,128.32,125.3,128.1Z"/><path class="cls-81" d="M106,128.1l.5.1v.4l-.1.1-.06.56,0,.3,0,.24h-.1l0-.3,0-.38,0-.38A1.5,1.5,0,0,0,106,128.1Z"/><path class="cls-82" d="M78,130.7h.2l.4.8h-.9v-.2l.3-.1Z"/><path class="cls-24" d="M102.4,128.7h.2v.9l-.4.2c0-.15,0-.29,0-.44l0-.24A.9.9,0,0,1,102.4,128.7Z"/><path class="cls-83" d="M119.2,128.7h.2v.9l-.4.1c0-.15,0-.3,0-.44l0-.25C119.1,128.8,119.1,128.8,119.2,128.7Z"/><path class="cls-25" d="M112.9,128.2h.6v.9h-.2l-.14-.34C113.07,128.57,113,128.38,112.9,128.2Z"/><path class="cls-84" d="M71.9,110.4l.2.1-1.2,1.2-.2-.1A6.81,6.81,0,0,1,71.9,110.4Z"/><path class="cls-85" d="M122.14,128.06a.75.75,0,0,1,.6.24l.16.2a2,2,0,0,1-.4.1l-.3-.2-.6-.1C121.8,128.1,121.8,128.1,122.14,128.06Z"/><path class="cls-86" d="M120.9,111.1h.2a1.3,1.3,0,0,1-.35.53,1.08,1.08,0,0,0-.27.64l0,.24,0,.19h-.1c0-.88,0-.88.3-1.3h.2Z"/><path class="cls-87" d="M85.7,89.8l-.1.3h-.3l.5.6-.7-.2-.1-.4C85.48,89.8,85.48,89.8,85.7,89.8Z"/><path class="cls-88" d="M102.9,71.5l.2.1-1.2,1.3-.2-.1Z"/><path class="cls-89" d="M75.9,130.6H76v.7h.2v.2h-.7v-.2h.2Z"/><path class="cls-89" d="M80,130.2h.1l0,.21,0,.27,0,.27a1.33,1.33,0,0,0,.13.55h-.7v-.2l.4-.1Z"/><path class="cls-81" d="M108.1,130.5l.2.1v.2h.3v.3h.3v.3a.81.81,0,0,1-.63-.34A.69.69,0,0,1,108.1,130.5Z"/><path class="cls-90" d="M88.7,128.2a4.09,4.09,0,0,1,.7,0,3.21,3.21,0,0,1-.5.3l0,.24c-.06.26-.06.26-.36.46C88.48,128.54,88.48,128.54,88.7,128.2Z"/><path class="cls-91" d="M113.4,117.7l.1.4a1.52,1.52,0,0,1-.9.4v.6h-.1a2.73,2.73,0,0,1,0-.7,1,1,0,0,1,.8-.3Z"/><path class="cls-92" d="M96.3,130.6h.1l.1.9h-.6c0-.3,0-.3.14-.45l.16-.15Z"/><path class="cls-93" d="M117.4,130.3h.1l0,.19,0,.24,0,.24a1.64,1.64,0,0,0,.13.53h-.9v-.2l.6.1-.06-.16A2.49,2.49,0,0,1,117.4,130.3Z"/><path class="cls-94" d="M90.6,130.4h.1a3,3,0,0,1,0,.8,1,1,0,0,1-.8.2l.24-.16A1.43,1.43,0,0,0,90.6,130.4Z"/><path class="cls-95" d="M124.6,130.8a10.9,10.9,0,0,1,1.1.5v.1a1.08,1.08,0,0,1-.89-.19l-.21-.21Z"/><path class="cls-96" d="M106.6,128.3a3,3,0,0,1,.6,1,1.75,1.75,0,0,1-.8-.7Z"/><path class="cls-97" d="M124.6,129l-.1,1.1h-.2v-1C124.5,129,124.5,129,124.6,129Z"/><path class="cls-98" d="M117.1,128.2h.4l-.2,1.6h-.1Z"/><path class="cls-99" d="M100.1,128.2h.7l-.1.16a2.25,2.25,0,0,0-.16.81l0,.3v.23h-.1v-1.4Z"/><path class="cls-100" d="M94.8,78.3l1,.3a2.29,2.29,0,0,1-.9.1v.5h-.1Z"/><path class="cls-101" d="M104.3,131.1l.3.3v.2h-.8v-.2Z"/><path class="cls-102" d="M79.7,128.1c.48.07.48.07.7.3v.4h-.2v-.3l-.19,0-.21-.07Z"/><path class="cls-103" d="M112.6,110.1h1.5v.1l-1.2.1-.2.5h-.1Z"/><path class="cls-104" d="M99.6,89.4h.2l.1.6-.1-.2L99,90Z"/><path class="cls-105" d="M113.3,130.3h.2v1h-.3Z"/><path class="cls-106" d="M87,129.6h.1v.5h.2l-.1.5-.4-.1Z"/><path class="cls-107" d="M122.6,129.1l.3.1-.5.6h-.2A1.69,1.69,0,0,1,122.6,129.1Z"/><path class="cls-108" d="M67.1,111.6l.2.3-.2.3c-.07.13-.14.27-.2.4h-.2A5.8,5.8,0,0,1,67.1,111.6Z"/><path class="cls-109" d="M106,83.3l.2.1-.9.6v-.3A6.11,6.11,0,0,1,106,83.3Z"/><path class="cls-110" d="M92.7,130.9l.7.4v.1c-.55,0-.55,0-.79-.15l-.11-.15h.2Z"/><path class="cls-111" d="M87.1,129.2l.2.1v.8h-.2a7.23,7.23,0,0,1-.1-.8Z"/><path class="cls-112" d="M89.7,110.1l.4.1-.2.7h-.2Z"/><path class="cls-113" d="M111.1,130.9l.6.4v.1l-.7-.1-.1-.2h.2Z"/><path class="cls-114" d="M82,130.8l.6.3v.3a1.07,1.07,0,0,1-.4-.1A3.25,3.25,0,0,1,82,130.8Z"/><path class="cls-115" d="M77.4,129.1h.2l.1.9-.2-.1A7,7,0,0,1,77.4,129.1Z"/><path class="cls-116" d="M106.2,131.1h.2v.2h.2v.3l-.5-.1Z"/><path class="cls-117" d="M92,129.1h.3l-.1,1.1h-.1Z"/><path class="cls-118" d="M111.52,128.24l.18.06-.24.14a1.37,1.37,0,0,0-.46.36v-.4C111.3,128.2,111.3,128.2,111.52,128.24Z"/><path class="cls-119" d="M72.3,128.1h.6l-.1.7-.08-.19c-.11-.24-.11-.24-.42-.31Z"/><path class="cls-120" d="M108.5,128.1h.7l-.1.3-.3-.1-.1.2Z"/><path class="cls-121" d="M60.9,110.1h.9a3,3,0,0,1-.9.3Z"/><path class="cls-122" d="M73,131.3v.2h-.7v-.2A.85.85,0,0,1,73,131.3Z"/><path class="cls-123" d="M97.8,129.1l.3.2-.1.8h-.1Z"/><path class="cls-124" d="M106,128.1l.5.1.1.3-.5-.1Z"/></g></g></svg>