<?xml version="1.0" encoding="UTF-8"?>
<svg version="1.1" xmlns="http://www.w3.org/2000/svg" width="2000" height="2000">
<path d="M0 0 C660 0 1320 0 2000 0 C2000 660 2000 1320 2000 2000 C1340 2000 680 2000 0 2000 C0 1340 0 680 0 0 Z " fill="#FEFEFE" transform="translate(0,0)"/>
<path d="M0 0 C16.59040499 7.56677864 32.1107543 18.02660931 45.3671875 30.5078125 C47.50331042 32.50787664 49.69131847 34.37864912 51.9453125 36.2421875 C59.74230274 43.07658635 65.89326704 50.77993596 68.8203125 60.8046875 C69.34818359 62.52171875 69.34818359 62.52171875 69.88671875 64.2734375 C71.32263604 70.13145965 71.20803469 76.11692932 71.3203125 82.1171875 C71.4638472 89.71186165 71.79478218 96.94970512 73.40039062 104.39135742 C73.83841025 106.90869693 73.89080445 109.25475501 73.8203125 111.8046875 C67.27570021 110.60903718 60.85202535 109.07772149 54.41455078 107.40063477 C50.57239976 106.4220911 46.7424524 105.58380019 42.8359375 104.90234375 C32.05330859 103.01402316 23.210804 100.57965468 13.8203125 94.8046875 C12.58087891 94.05445313 12.58087891 94.05445313 11.31640625 93.2890625 C-7.52605576 80.31234084 -16.90776721 51.97649311 -25.1796875 31.8046875 C-25.67984375 30.59425781 -26.18 29.38382813 -26.6953125 28.13671875 C-29.37371978 20.997443 -31.49802934 12.08763461 -28.296875 4.79296875 C-20.59247434 -5.33500166 -10.65303546 -4.37491247 0 0 Z " fill="#929C6A" transform="translate(1035.1796875,873.1953125)"/>
<path d="M0 0 C9.98105684 5.03206671 18.00047203 13.34926008 22.375 23.6875 C22.89964844 24.82574219 23.42429687 25.96398438 23.96484375 27.13671875 C28.13357419 38.48288117 27.37827682 55.5863805 22.9375 66.75 C19.67947669 72.90489782 15.39796467 77.90288339 10.375 82.6875 C9.47587891 83.58082031 9.47587891 83.58082031 8.55859375 84.4921875 C-1.06461504 93.46789501 -12.10850941 94.15181485 -24.6171875 93.9609375 C-34.64486022 93.58457372 -42.51603479 89.71834471 -49.625 82.6875 C-61.82616817 68.5324081 -63.55270254 54.51231419 -62.8515625 36.44042969 C-62.37218517 30.61558187 -60.46956027 25.79119652 -57.625 20.6875 C-56.93857422 19.43453125 -56.93857422 19.43453125 -56.23828125 18.15625 C-44.75985276 -0.71239957 -20.3964093 -7.89538424 0 0 Z " fill="#97A06D" transform="translate(761.625,1100.3125)"/>
<path d="M0 0 C3.65621858 3.58215153 6.59690207 7.17789719 7.9375 12.1875 C7.7768819 21.50334953 2.07960482 28.61198053 -4.0625 35.1875 C-5.5475 35.6825 -5.5475 35.6825 -7.0625 36.1875 C-7.0625 36.8475 -7.0625 37.5075 -7.0625 38.1875 C-9.20138323 39.6687381 -11.31991695 41.00391157 -13.5625 42.3125 C-14.2323291 42.70775879 -14.9021582 43.10301758 -15.59228516 43.51025391 C-41.36104455 58.50962233 -68.12168082 65.19111741 -97.83740234 57.79589844 C-108.62710555 54.84571845 -119.14990845 51.40163775 -129.0625 46.1875 C-129.0625 45.1975 -129.0625 44.2075 -129.0625 43.1875 C-126.7265625 41.36328125 -126.7265625 41.36328125 -123.6875 39.5 C-122.68976562 38.87738281 -121.69203125 38.25476563 -120.6640625 37.61328125 C-118.0625 36.1875 -118.0625 36.1875 -116.0625 36.1875 C-116.0625 35.5275 -116.0625 34.8675 -116.0625 34.1875 C-114.62011719 32.77514648 -114.62011719 32.77514648 -112.609375 31.12109375 C-108.70105007 27.79970504 -105.13331924 24.26156871 -101.56933594 20.57714844 C-78.30627483 -3.41068134 -30.28640455 -24.56833137 0 0 Z " fill="#929D6A" transform="translate(979.0625,857.8125)"/>
<path d="M0 0 C2.63296259 2.36158798 4.10822606 4.80400282 5.73828125 7.9296875 C7.91511939 12.0170592 10.16876611 16.03165262 12.54296875 20.0078125 C13.14173828 21.01457031 13.74050781 22.02132812 14.35742188 23.05859375 C15.58399373 25.11378885 16.81582734 27.1658522 18.05273438 29.21484375 C21.47985216 34.99972945 24.29357359 40.48133303 26 47 C26.22171875 47.84304688 26.4434375 48.68609375 26.671875 49.5546875 C28.82417955 65.59448096 26.68384937 83.86182693 21 99 C20.76023437 99.69351563 20.52046875 100.38703125 20.2734375 101.1015625 C14.34829543 116.32973138 1.63349994 129.90496972 -13 137 C-15.828125 137.1875 -15.828125 137.1875 -18 137 C-24.21805551 125.46943104 -26.96901943 114.44071107 -29.4453125 101.69970703 C-30.52091238 96.21394237 -31.73519991 90.78941593 -33.125 85.375 C-37.7330583 67.29364544 -38.91860432 52.0449962 -29.80078125 34.91796875 C-25.36386605 27.72843371 -19.74011387 21.53615185 -13.6875 15.6796875 C-8.77537208 10.79030092 -4.40718637 5.34204409 0 0 Z " fill="#929C69" transform="translate(1034,709)"/>
<path d="M0 0 C6.91931041 -0.09947585 13.8381971 -0.17175527 20.75805664 -0.21972656 C23.10806538 -0.23974175 25.45802496 -0.26696244 27.80786133 -0.30175781 C31.20145867 -0.35072124 34.59439296 -0.37307059 37.98828125 -0.390625 C39.02519608 -0.41127014 40.0621109 -0.43191528 41.13044739 -0.45318604 C49.35913406 -0.45567161 56.90928931 1.0965358 63.71875 5.9296875 C64.60046875 6.89261719 64.60046875 6.89261719 65.5 7.875 C66.1084375 8.51179688 66.716875 9.14859375 67.34375 9.8046875 C72.77820293 17.00790105 72.98887485 24.32123168 72.29736328 32.98535156 C71.21872297 40.29318396 65.82002206 46.02050988 60.27734375 50.53125 C52.18241519 55.75199295 43.08488764 57.15174422 33.625 57.0625 C30.345625 57.0315625 30.345625 57.0315625 27 57 C27 64.92 27 72.84 27 81 C30.3 81 33.6 81 37 81 C37 83.97 37 86.94 37 90 C24.46 90 11.92 90 -1 90 C-1 84 -1 84 1.3125 81.625 C4 80 4 80 7 80 C7.33 56.9 7.66 33.8 8 10 C5.36 10 2.72 10 0 10 C0 6.7 0 3.4 0 0 Z " fill="#98A06E" transform="translate(1282,1101)"/>
<path d="M0 0 C5.30498483 -0.34317961 10.57779904 -0.57999319 15.89453125 -0.484375 C16.76956299 -0.47116211 17.64459473 -0.45794922 18.54614258 -0.44433594 C21.55672869 0.10081049 23.01226135 1.19912466 25.25 3.25 C26.21053698 4.8071098 27.12374622 6.39394846 28 8 C29.41662023 9.91148565 30.85596745 11.80624956 32.3125 13.6875 C33.07820312 14.72003906 33.84390625 15.75257812 34.6328125 16.81640625 C41.59699786 26.18243112 48.81995274 35.35834838 56.00268555 44.55712891 C57.67380176 46.70066835 59.33791957 48.84944931 61 51 C61.57943359 51.7429834 62.15886719 52.4859668 62.75585938 53.25146484 C63.30564453 53.96641113 63.85542969 54.68135742 64.421875 55.41796875 C64.9178418 56.05887451 65.41380859 56.69978027 65.92480469 57.36010742 C67 59 67 59 67 61 C67.66 61 68.32 61 69 61 C69 44.17 69 27.34 69 10 C66.69 10 64.38 10 62 10 C61.01 9.67 60.02 9.34 59 9 C59 6.03 59 3.06 59 0 C68.9 0 78.8 0 89 0 C88.67 2.31 88.34 4.62 88 7 C86.1875 8.1603241 86.1875 8.1603241 84 8.84057617 C81.70854571 9.96210011 81.70854571 9.96210011 80 12 C78.73436346 17.81757127 78.92857812 23.6208561 79 29.55078125 C78.9924796 31.29243276 78.98144402 33.03407235 78.96704102 34.77568054 C78.93862503 39.35132481 78.9578849 43.92556896 78.98712158 48.50115967 C79.00852453 53.17339195 78.98477642 57.84537168 78.96484375 62.51757812 C78.93240692 71.67870123 78.95034134 80.83897977 79 90 C75.57323039 91.71338481 72.63374559 92.01845464 69 91 C65.42157781 88.17777269 62.75653187 84.59764576 60 81 C59.50838379 80.36755371 59.01676758 79.73510742 58.51025391 79.08349609 C55.73738901 75.51252462 52.99342504 71.92094496 50.26953125 68.3125 C47.3295942 64.42138144 44.33618155 60.576247 41.3125 56.75 C36.89114051 51.14918281 32.52860094 45.5060635 28.19140625 39.83984375 C26.15707609 37.20355493 24.08019867 34.60024834 22 32 C21.67 48.17 21.34 64.34 21 81 C23.97 81 26.94 81 30 81 C30 83.97 30 86.94 30 90 C20.1 90 10.2 90 0 90 C1 83 1 83 3.4375 81.125 C4.283125 80.75375 5.12875 80.3825 6 80 C6.99 79.505 6.99 79.505 8 79 C8.33 55.9 8.66 32.8 9 9 C6.03 9 3.06 9 0 9 C0 6.03 0 3.06 0 0 Z " fill="#97A071" transform="translate(896,1101)"/>
<path d="M0 0 C4.64634667 2.48157151 9.42372761 4.25154373 14.4375 5.8359375 C13.19590934 9.56070949 12.19893973 9.82662928 8.875 11.7734375 C3.02331918 15.35328929 -2.39054451 19.3767525 -7.81469727 23.57202148 C-13.82314095 28.17440964 -19.61214083 31.80774244 -26.9375 34.0234375 C-27.97648437 34.34699219 -29.01546875 34.67054688 -30.0859375 35.00390625 C-38.27666214 36.96415833 -46.48611645 37.01835024 -54.875 37.0234375 C-56.4518457 37.04180664 -56.4518457 37.04180664 -58.06054688 37.06054688 C-69.71217216 37.08203113 -79.29863867 36.28804736 -88.5625 28.8359375 C-89.34367187 28.27390625 -90.12484375 27.711875 -90.9296875 27.1328125 C-93.07552578 25.4844523 -94.87252576 23.94840529 -96.5625 21.8359375 C-97.17518661 16.32175801 -94.46818351 12.36326566 -91.328125 8.02734375 C-86.21353927 1.67937341 -80.53451399 -1.92682073 -73.25 -5.4140625 C-72.56317139 -5.74349854 -71.87634277 -6.07293457 -71.16870117 -6.41235352 C-46.56448773 -17.62893805 -22.64869541 -12.74027846 0 0 Z " fill="#939E69" transform="translate(1135.5625,837.1640625)"/>
<path d="M0 0 C0 10.89 0 21.78 0 33 C-2.31 33 -4.62 33 -7 33 C-7.41958984 31.80503906 -7.41958984 31.80503906 -7.84765625 30.5859375 C-11.13259566 21.90355744 -14.29128909 17.82522655 -22.125 13.125 C-27.51486388 11.11748862 -33.38005897 11.13966335 -39 12 C-47.23181066 15.89517855 -51.58770199 23.39495462 -55.0625 31.46875 C-56.40049728 36.50853975 -56.38302725 41.36806429 -56.375 46.5625 C-56.37338867 47.6335498 -56.37177734 48.70459961 -56.37011719 49.80810547 C-56.21170261 60.04758861 -54.88442165 69.90068041 -48 78 C-42.44474621 83.34505499 -38.55695624 85.2815778 -30.8125 85.25 C-29.56082031 85.25515625 -28.30914063 85.2603125 -27.01953125 85.265625 C-22.12214895 85.04432102 -22.12214895 85.04432102 -14 83 C-13.67 75.08 -13.34 67.16 -13 59 C-15.64 59 -18.28 59 -21 59 C-21.33 58.67 -21.66 58.34 -22 58 C-22 55.03 -22 52.06 -22 49 C-10.78 49 0.44 49 12 49 C12 51.64 12 54.28 12 57 C6.25 60 6.25 60 4 60 C4 69.57 4 79.14 4 89 C-35.33108607 102.11036202 -35.33108607 102.11036202 -52.01391602 94.84155273 C-64.22991703 88.70121722 -71.3000389 78.61568505 -76 66 C-79.53073847 50.88528305 -78.09342877 34.58027656 -70.35546875 21.14453125 C-64.24785323 11.8107712 -55.7641536 5.06930274 -45.1484375 1.3515625 C-32.76007221 -0.67562455 -20.90217125 1.66322108 -9 5 C-8.814375 4.0409375 -8.814375 4.0409375 -8.625 3.0625 C-8.41875 2.381875 -8.2125 1.70125 -8 1 C-6 0 -6 0 0 0 Z " fill="#9AA172" transform="translate(1071,1097)"/>
<path d="M0 0 C4.43748635 -0.02896822 8.87494847 -0.04678788 13.3125 -0.0625 C14.57513672 -0.07087891 15.83777344 -0.07925781 17.13867188 -0.08789062 C18.95141602 -0.09272461 18.95141602 -0.09272461 20.80078125 -0.09765625 C22.47394409 -0.10551147 22.47394409 -0.10551147 24.1809082 -0.11352539 C27 0 27 0 30 1 C30 3.31 30 5.62 30 8 C24.25 11 24.25 11 22 11 C21.99191315 11.61672577 21.98382629 12.23345154 21.97549438 12.86886597 C21.88899483 19.32618763 21.78947502 25.78321822 21.68261719 32.24023438 C21.64449032 34.64545782 21.60960996 37.05073513 21.578125 39.45605469 C21.53211907 42.92662723 21.47418457 46.39683417 21.4140625 49.8671875 C21.40251129 50.93113739 21.39096008 51.99508728 21.37905884 53.09127808 C21.14838896 64.93611222 19.36698371 75.64293509 11.3671875 84.88671875 C1.9138539 93.61456395 -9.39813498 94.61721679 -21.65625 94.40625 C-30.02755551 93.99589189 -36.66470298 90.82586887 -42.4375 84.75 C-50.49014474 73.96563211 -52.32237189 63.12441541 -52.1953125 49.96484375 C-52.19106766 48.2859481 -52.19106766 48.2859481 -52.18673706 46.57313538 C-52.17561732 43.02781095 -52.1505279 39.48274699 -52.125 35.9375 C-52.1149596 33.52148805 -52.10583561 31.1054721 -52.09765625 28.68945312 C-52.0757049 22.79288114 -52.04230979 16.89645919 -52 11 C-53.7015625 11.0309375 -53.7015625 11.0309375 -55.4375 11.0625 C-59 11 -59 11 -60 10 C-60 7.03 -60 4.06 -60 1 C-47.79 1 -35.58 1 -23 1 C-24 7 -24 7 -25.81648254 8.49798584 C-26.90082832 9.07471039 -26.90082832 9.07471039 -28.00708008 9.66308594 C-30.61893816 11.46586532 -31.80504527 12.35423228 -32.73178101 15.4239502 C-32.97485002 18.44037667 -32.97827857 21.36566563 -32.88671875 24.390625 C-32.88251419 25.49041687 -32.87830963 26.59020874 -32.87397766 27.72332764 C-32.8575414 30.04671765 -32.82188462 32.37004069 -32.76831055 34.69287109 C-32.68807927 38.22450144 -32.66587951 41.75270033 -32.65429688 45.28515625 C-32.63102329 47.54951689 -32.60443709 49.81384639 -32.57421875 52.078125 C-32.55979988 53.64581635 -32.55979988 53.64581635 -32.54508972 55.24517822 C-32.34753944 62.97074297 -31.50737244 71.0161166 -26.8125 77.4375 C-21.6220791 82.16655015 -16.12852883 83.56070338 -9.16796875 83.28515625 C-3.07428172 82.48364426 1.21669183 79.72913522 5 75 C9.0424542 66.84771736 9.17600045 58.40474719 9.31640625 49.4765625 C9.3475779 47.82459366 9.3475779 47.82459366 9.37937927 46.13925171 C9.4445619 42.63456227 9.50361397 39.12980034 9.5625 35.625 C9.60571498 33.2434822 9.64933022 30.86197163 9.69335938 28.48046875 C9.80021112 22.6537216 9.90203467 16.82690297 10 11 C8.081875 11.0309375 8.081875 11.0309375 6.125 11.0625 C2.25 11.125 2.25 11.125 0 10 C0 6.7 0 3.4 0 0 Z " fill="#98A16F" transform="translate(857,1100)"/>
<path d="M0 0 C6.73788482 3.9282649 11.42774641 9.70953971 13.98046875 17.02734375 C17.85924928 31.95646306 17.98887807 51.92979595 10.1328125 65.5234375 C7.25445391 69.70463208 4.22486378 73.06565603 -0.4765625 75.1171875 C-7.11669446 75.85497994 -13.957926 76.32186293 -19.4765625 72.1171875 C-27.15000604 65.36178574 -31.86137415 54.88413513 -32.66943359 44.68212891 C-33.50027073 16.70054126 -33.50027073 16.70054126 -25.0390625 5.4921875 C-24.1934375 4.7084375 -23.3478125 3.9246875 -22.4765625 3.1171875 C-21.6721875 2.3334375 -20.8678125 1.5496875 -20.0390625 0.7421875 C-13.8453988 -2.08299243 -6.45761118 -2.30192449 0 0 Z " fill="#FDFDFD" transform="translate(751.4765625,1108.8828125)"/>
<path d="M0 0 C8.32728947 -0.02312684 16.65456563 -0.04091683 24.98187923 -0.05181217 C28.84820118 -0.05704026 32.71450121 -0.06413654 36.58081055 -0.07543945 C40.30903401 -0.086271 44.03723634 -0.0922774 47.76547432 -0.09487724 C49.19089656 -0.09673101 50.61631759 -0.10035071 52.04173088 -0.10573006 C54.03163408 -0.11294393 56.02155834 -0.11340808 58.01147461 -0.11352539 C59.14620712 -0.115746 60.28093964 -0.11796661 61.45005798 -0.12025452 C64 0 64 0 65 1 C65.08737645 2.85369611 65.10698153 4.71067541 65.09765625 6.56640625 C65.09282227 8.2534668 65.09282227 8.2534668 65.08789062 9.97460938 C65.07532227 11.75061523 65.07532227 11.75061523 65.0625 13.5625 C65.05798828 14.75037109 65.05347656 15.93824219 65.04882812 17.16210938 C65.03699675 20.10812226 65.02051287 23.05403681 65 26 C62.36 26 59.72 26 57 26 C55.98169854 22.94509562 54.9833329 19.93461369 54.1875 16.8125 C52.71681779 13.3293053 51.39939734 12.53782261 48 11 C44.46756906 9.87246066 41.06907373 9.8000326 37.375 9.75 C36.22773437 9.72421875 35.08046875 9.6984375 33.8984375 9.671875 C32.94195313 9.78015625 31.98546875 9.8884375 31 10 C28.57829321 13.63256018 28.6955497 15.52578695 28.5859375 19.85546875 C28.56657135 20.51710526 28.5472052 21.17874176 28.5272522 21.86042786 C28.46757313 23.96932164 28.42111913 26.07827037 28.375 28.1875 C28.33680934 29.61916415 28.29775697 31.05080559 28.2578125 32.48242188 C28.16188227 35.98807312 28.07780803 39.49389445 28 43 C33.94 42.505 33.94 42.505 40 42 C40.33 39.03 40.66 36.06 41 33 C43.97 33 46.94 33 50 33 C50 42.9 50 52.8 50 63 C47.03 63 44.06 63 41 63 C40.34 60.03 39.68 57.06 39 54 C35.37 53.34 31.74 52.68 28 52 C28.495 66.355 28.495 66.355 29 81 C31.97 81.33 34.94 81.66 38 82 C38 84.97 38 87.94 38 91 C25.46 91 12.92 91 0 91 C0 88.69 0 86.38 0 84 C2.84260487 81.61835808 4.28405267 81 8 81 C8.33 57.57 8.66 34.14 9 10 C6.03 10 3.06 10 0 10 C0 6.7 0 3.4 0 0 Z " fill="#9FA37A" transform="translate(1125,1100)"/>
<path d="M0 0 C1.31935547 -0.00128906 2.63871094 -0.00257812 3.99804688 -0.00390625 C5.02103882 -0.00076416 5.02103882 -0.00076416 6.06469727 0.00244141 C8.14932501 0.00780473 10.23373818 0.002477 12.31835938 -0.00390625 C13.63642578 -0.00261719 14.95449219 -0.00132813 16.3125 0 C17.51656494 0.00112793 18.72062988 0.00225586 19.96118164 0.00341797 C22.54208907 0.11015858 24.64050364 0.36883991 27.08984375 1.1328125 C26.90234375 3.9453125 26.90234375 3.9453125 26.08984375 7.1328125 C23.71484375 8.8828125 23.71484375 8.8828125 21.08984375 10.1328125 C20.09984375 10.7928125 19.10984375 11.4528125 18.08984375 12.1328125 C17.24783473 16.75424783 19.21651255 19.58981357 21.58984375 23.45703125 C21.94498047 24.04450638 22.30011719 24.63198151 22.66601562 25.23725891 C23.79702397 27.10476128 24.94247872 28.96282284 26.08984375 30.8203125 C27.23484014 32.68981689 28.37663908 34.56114237 29.51367188 36.4355011 C30.54295475 38.12984537 31.58180248 39.81836806 32.62109375 41.5065918 C34.08984375 44.1328125 34.08984375 44.1328125 34.08984375 46.1328125 C34.74984375 46.1328125 35.40984375 46.1328125 36.08984375 46.1328125 C36.4919104 44.83754639 36.4919104 44.83754639 36.90209961 43.51611328 C38.07603451 40.17214826 39.48150781 37.15360577 41.09375 34 C41.66931641 32.86433594 42.24488281 31.72867187 42.83789062 30.55859375 C43.74841379 28.77675185 44.65894137 26.99491212 45.57006836 25.21337891 C46.45623188 23.47725097 47.33755462 21.73865486 48.21875 20 C48.7454126 18.96987793 49.2720752 17.93975586 49.81469727 16.87841797 C50.87701834 14.59106151 51.60677156 12.59416282 52.08984375 10.1328125 C50.38828125 10.16375 50.38828125 10.16375 48.65234375 10.1953125 C45.08984375 10.1328125 45.08984375 10.1328125 44.08984375 9.1328125 C44.08984375 6.4928125 44.08984375 3.8528125 44.08984375 1.1328125 C53.98984375 1.1328125 63.88984375 1.1328125 74.08984375 1.1328125 C74.08984375 6.1328125 74.08984375 6.1328125 72.62890625 7.93359375 C71.68144531 8.68189453 71.68144531 8.68189453 70.71484375 9.4453125 C70.08835937 9.95707031 69.461875 10.46882813 68.81640625 10.99609375 C67.08984375 12.1328125 67.08984375 12.1328125 65.08984375 12.1328125 C64.84105469 12.65230469 64.59226562 13.17179687 64.3359375 13.70703125 C63.06118637 16.18860007 61.67573128 18.59145573 60.27148438 21.00146484 C58.62460179 23.86195332 57.03948945 26.75506356 55.45751953 29.65185547 C54.52313479 31.34682472 53.5728024 33.03307475 52.60888672 34.71142578 C43.77901643 50.22244192 41.36116634 63.3328786 42.08984375 81.1328125 C43.38921875 81.1121875 44.68859375 81.0915625 46.02734375 81.0703125 C47.38150008 81.04881796 48.73740458 81.06133051 50.08984375 81.1328125 C51.08984375 82.1328125 51.08984375 82.1328125 51.08984375 91.1328125 C38.54984375 91.1328125 26.00984375 91.1328125 13.08984375 91.1328125 C14.08984375 85.1328125 14.08984375 85.1328125 16.52734375 82.8203125 C19.08984375 81.1328125 19.08984375 81.1328125 21.08984375 80.1328125 C23.47525166 72.97658877 23.90472403 63.32996017 20.5390625 56.4140625 C18.7274363 53.24327907 16.65777098 50.25398155 14.55810547 47.26855469 C11.70332466 43.11597362 9.10768814 38.79701274 6.46484375 34.5078125 C5.62542236 33.16384399 5.62542236 33.16384399 4.76904297 31.79272461 C1.04672508 25.80763796 -2.34773365 19.76843006 -5.4453125 13.43359375 C-7.06636276 10.88746414 -8.1889634 10.28125771 -10.91015625 9.1328125 C-12.26455293 6.42401915 -11.97517076 4.12347982 -11.91015625 1.1328125 C-7.88739556 0.17639177 -4.12981016 0.00386505 0 0 Z " fill="#97A06F" transform="translate(620.91015625,1099.8671875)"/>
<path d="M0 0 C25.74 0 51.48 0 78 0 C79.15033784 14.95439189 79.15033784 14.95439189 79.0625 22.3125 C79.05798828 23.06466797 79.05347656 23.81683594 79.04882812 24.59179688 C79.03734551 26.39456815 79.01943033 28.19729686 79 30 C76.69 30 74.38 30 72 30 C71.03017402 27.16512406 70.08970969 24.34716058 69.33984375 21.4453125 C68.98599609 20.11113281 68.98599609 20.11113281 68.625 18.75 C68.41101562 17.89921875 68.19703125 17.0484375 67.9765625 16.171875 C67.17844344 13.87278647 67.17844344 13.87278647 65.10546875 12.76953125 C59.72019535 10.80125878 54.71399562 9.81628509 49 9 C49 33.09 49 57.18 49 82 C51.97 82 54.94 82 58 82 C58 84.97 58 87.94 58 91 C45.79 91 33.58 91 21 91 C21 88.69 21 86.38 21 84 C23.64 82.68 26.28 81.36 29 80 C29.33 56.57 29.66 33.14 30 9 C18.43791246 9.96327478 18.43791246 9.96327478 11 16 C9.99740493 19.00778521 9.69685358 21.53820647 9.4375 24.6875 C9.35371094 25.68136719 9.26992187 26.67523437 9.18359375 27.69921875 C9.12300781 28.45847656 9.06242187 29.21773437 9 30 C6.03 30 3.06 30 0 30 C0 20.1 0 10.2 0 0 Z " fill="#9BA176" transform="translate(1194,1100)"/>
<path d="M0 0 C19.84272115 5.76201124 33.97929741 12.0824427 44.40893555 30.80566406 C48.2845268 38.15619247 50.6081506 44.55061857 49 53 C47.08333333 57.91666667 47.08333333 57.91666667 45 60 C35.70855676 60.99470439 28.29665265 60.97838825 20.53515625 55.1953125 C13.90897208 49.45738414 7.83078818 43.98080871 4 36 C3.608125 35.319375 3.21625 34.63875 2.8125 33.9375 C0.93319954 29.45609122 0.84992297 24.52634844 0.68359375 19.7265625 C0.64169922 18.57285156 0.59980469 17.41914062 0.55664062 16.23046875 C0.51732422 15.04066406 0.47800781 13.85085938 0.4375 12.625 C0.37272461 10.80548828 0.37272461 10.80548828 0.30664062 8.94921875 C0.20094487 5.96624968 0.09884679 2.98320258 0 0 Z " fill="#949E6A" transform="translate(948,783)"/>
<path d="M0 0 C4.23205245 11.09377632 5.75367598 20.98266631 5.54199219 32.83813477 C5.49972962 35.32843221 5.50098292 37.81604019 5.5078125 40.30664062 C5.46500621 51.33497963 4.53028449 61.21468656 -0.9375 71.0625 C-1.42089844 71.96097656 -1.90429688 72.85945312 -2.40234375 73.78515625 C-4.10131296 76.14045098 -5.31966252 76.97533535 -8 78 C-19.98892164 63.4024998 -25.42909153 48.84673075 -24.22949219 30.03173828 C-22.98944273 19.05334295 -15.80912014 10.95658715 -7.7109375 4.046875 C-2.51051402 0 -2.51051402 0 0 0 Z " fill="#949F6C" transform="translate(998,894)"/>
<path d="M0 0 C4.27241677 3.43877447 7.71873747 7.7066263 9.078125 13.11328125 C9.38341143 18.55392156 7.36190234 23.47509229 4.5625 28.0625 C-0.89531146 33.38719411 -5.93696147 33.42155208 -13.26953125 33.33203125 C-18.32221769 32.90214794 -20.630877 31.11548069 -23.8984375 27.40234375 C-27.35415928 22.75334787 -28.26385248 18.5029054 -27.9921875 12.75 C-26.85453087 7.23797349 -23.56956543 3.63083288 -19.1328125 0.3671875 C-13.32533173 -2.44396986 -6.09155751 -1.66133387 0 0 Z " fill="#FBFBFB" transform="translate(1269.4375,1281.9375)"/>
<path d="M0 0 C3.16594536 -0.17638838 6.33060873 -0.28152076 9.5 -0.375 C10.8303125 -0.45041016 10.8303125 -0.45041016 12.1875 -0.52734375 C18.25436733 -0.66117171 21.63932205 0.43268835 26.32617188 4.31005859 C30.35581735 8.37849588 31.48553092 10.94301455 31.625 16.75 C31.50202395 22.96352674 30.3839654 26.17293228 26.01953125 30.546875 C20.72678633 34.35519436 15.4973041 34.39914571 9.1875 34.625 C8.30384766 34.66367188 7.42019531 34.70234375 6.50976562 34.7421875 C4.34017028 34.83600784 2.17011453 34.91907326 0 35 C-0.495 33.515 -0.495 33.515 -1 32 C-0.34 31.67 0.32 31.34 1 31 C1.02473868 27.06731133 1.04287835 23.13465287 1.05493164 19.2019043 C1.06242729 17.20685232 1.07513345 15.21182214 1.08789062 13.21679688 C1.09272461 11.33637695 1.09272461 11.33637695 1.09765625 9.41796875 C1.10289307 8.26063232 1.10812988 7.1032959 1.11352539 5.91088867 C1.13299461 2.93395589 1.13299461 2.93395589 0 0 Z " fill="#FBFBFB" transform="translate(842,1281)"/>
<path d="M0 0 C0.88300781 0.02707031 1.76601562 0.05414062 2.67578125 0.08203125 C3.67158203 0.13423828 3.67158203 0.13423828 4.6875 0.1875 C4.6875 0.8475 4.6875 1.5075 4.6875 2.1875 C5.5228125 2.31125 5.5228125 2.31125 6.375 2.4375 C9.52005829 3.4575189 11.31999758 4.88230027 13.6875 7.1875 C17.20344982 14.554252 16.00020111 22.62785824 13.6875 30.1875 C11.78442298 34.35614489 9.82213861 36.21862447 5.6875 38.1875 C2.02722246 39.10101579 -1.3597977 39.29536388 -5.125 39.25 C-6.10082031 39.24097656 -7.07664062 39.23195313 -8.08203125 39.22265625 C-9.18611328 39.20525391 -9.18611328 39.20525391 -10.3125 39.1875 C-10.43605727 34.11556922 -10.52681615 29.04451304 -10.5871582 23.97143555 C-10.61231005 22.24569441 -10.64643619 20.52005988 -10.68969727 18.79467773 C-10.75032433 16.31467419 -10.77870101 13.83607778 -10.80078125 11.35546875 C-10.82658768 10.58349655 -10.8523941 9.81152435 -10.87898254 9.01615906 C-10.88012695 6.83276367 -10.88012695 6.83276367 -10.3125 3.1875 C-6.92441619 0.33142935 -4.36537912 -0.17461516 0 0 Z " fill="#FDFDFD" transform="translate(1319.3125,1108.8125)"/>
<path d="M0 0 C2.87557703 -0.08138426 5.74882262 -0.14067851 8.625 -0.1875 C9.43324219 -0.21263672 10.24148438 -0.23777344 11.07421875 -0.26367188 C16.14230591 -0.32547782 19.63703837 0.12044532 24 3 C26.68277915 7.02416873 26.79769475 10.27199673 26 15 C22.7653271 19.60695837 19.44469068 20.96738625 14 22 C11.66784156 22.07403678 9.33139212 22.09515886 7 22 C7.11362262 23.4800841 7.24122908 24.95910074 7.375 26.4375 C7.44460938 27.26121094 7.51421875 28.08492187 7.5859375 28.93359375 C7.72257813 29.61550781 7.85921875 30.29742188 8 31 C8.66 31.33 9.32 31.66 10 32 C10 32.66 10 33.32 10 34 C6.7 34 3.4 34 0 34 C0.66 32.68 1.32 31.36 2 30 C2.27495939 26.99853173 2.27495939 26.99853173 2.1953125 23.703125 C2.18886719 22.49785156 2.18242188 21.29257813 2.17578125 20.05078125 C2.15902344 18.79652344 2.14226563 17.54226563 2.125 16.25 C2.11597656 14.98027344 2.10695313 13.71054688 2.09765625 12.40234375 C2.07409005 9.26803907 2.04118832 6.13411459 2 3 C1.34 2.67 0.68 2.34 0 2 C0 1.34 0 0.68 0 0 Z " fill="#26252D" transform="translate(1000,1281)"/>
<path d="M0 0 C2.87557703 -0.08138426 5.74882262 -0.14067851 8.625 -0.1875 C9.43324219 -0.21263672 10.24148438 -0.23777344 11.07421875 -0.26367188 C16.14230591 -0.32547782 19.63703837 0.12044532 24 3 C26.37991873 6.56987809 26.54067488 8.58821083 26.4453125 12.77734375 C26 15 26 15 23.375 17.9375 C17.75546852 21.37165813 13.57884706 22.26315388 7 22 C7.14168137 23.43791516 7.28851043 24.8753237 7.4375 26.3125 C7.51871094 27.11300781 7.59992188 27.91351562 7.68359375 28.73828125 C7.95265693 31.16087179 7.95265693 31.16087179 9 34 C6.03 34 3.06 34 0 34 C0 33.34 0 32.68 0 32 C0.66 31.67 1.32 31.34 2 31 C2 21.76 2 12.52 2 3 C1.34 2.67 0.68 2.34 0 2 C0 1.34 0 0.68 0 0 Z " fill="#434247" transform="translate(1168,1281)"/>
<path d="M0 0 C3.06345144 -0.10822792 6.1230601 -0.18741479 9.1875 -0.25 C10.05181641 -0.28351563 10.91613281 -0.31703125 11.80664062 -0.3515625 C16.00997647 -0.41598144 18.37703868 -0.36616811 22.0703125 1.8046875 C24 4 24 4 24.6875 7.375 C23.95877302 11.21737865 23.68103413 11.6026127 20.9375 14 C19.27300591 15.40787257 19.27300591 15.40787257 18 17 C17.80495659 22.46121542 19.70291764 25.76089411 23 30 C24.29682374 31.36886951 25.61823134 32.7169291 27 34 C23.8125 34.5 23.8125 34.5 20 34 C16.93345652 30.73010483 15.27411124 26.65548339 13.5625 22.5625 C13.046875 21.716875 12.53125 20.87125 12 20 C10.02 19.67 8.04 19.34 6 19 C6.33 23.95 6.66 28.9 7 34 C4.69 34 2.38 34 0 34 C0.16226074 33.46769775 0.32452148 32.93539551 0.49169922 32.38696289 C1.11091707 29.47913725 1.12973843 26.78232108 1.1328125 23.80859375 C1.13410156 22.61685547 1.13539062 21.42511719 1.13671875 20.19726562 C1.13285156 18.95654297 1.12898438 17.71582031 1.125 16.4375 C1.12886719 15.19291016 1.13273437 13.94832031 1.13671875 12.66601562 C1.13478516 10.8803418 1.13478516 10.8803418 1.1328125 9.05859375 C1.13112061 7.42361938 1.13112061 7.42361938 1.12939453 5.75561523 C1.1206726 2.90971492 1.1206726 2.90971492 0 0 Z " fill="#323033" transform="translate(1206,1281)"/>
<path d="M0 0 C3.16594536 -0.17638838 6.33060873 -0.28152076 9.5 -0.375 C10.8303125 -0.45041016 10.8303125 -0.45041016 12.1875 -0.52734375 C18.25436733 -0.66117171 21.63932205 0.43268835 26.32617188 4.31005859 C30.35581735 8.37849588 31.48553092 10.94301455 31.625 16.75 C31.50202395 22.96352674 30.3839654 26.17293228 26.01953125 30.546875 C20.72678633 34.35519436 15.4973041 34.39914571 9.1875 34.625 C8.30384766 34.66367188 7.42019531 34.70234375 6.50976562 34.7421875 C4.34017028 34.83600784 2.17011453 34.91907326 0 35 C-0.495 33.515 -0.495 33.515 -1 32 C-0.34 31.67 0.32 31.34 1 31 C1.02473868 27.06731133 1.04287835 23.13465287 1.05493164 19.2019043 C1.06242729 17.20685232 1.07513345 15.21182214 1.08789062 13.21679688 C1.09272461 11.33637695 1.09272461 11.33637695 1.09765625 9.41796875 C1.10289307 8.26063232 1.10812988 7.1032959 1.11352539 5.91088867 C1.13299461 2.93395589 1.13299461 2.93395589 0 0 Z M6 2 C6 11.9 6 21.8 6 32 C17.83114341 33.09572558 17.83114341 33.09572558 22.625 29.875 C26.60160542 25.06121449 28.56687041 21.19716514 28.28125 14.94921875 C27.62772548 10.41993079 25.48086764 7.58210293 22.625 4.125 C17.83114341 0.90427442 17.83114341 0.90427442 6 2 Z " fill="#2F2E31" transform="translate(842,1281)"/>
<path d="M0 0 C0.99 0 1.98 0 3 0 C3.268125 0.71800781 3.53625 1.43601562 3.8125 2.17578125 C9.87240064 18.31688484 9.87240064 18.31688484 17 34 C14.03 34 11.06 34 8 34 C8 33.34 8 32.68 8 32 C8.66 32 9.32 32 10 32 C9.34 29.03 8.68 26.06 8 23 C3.38 23 -1.24 23 -6 23 C-6.99 25.97 -7.98 28.94 -9 32 C-8.34 32 -7.68 32 -7 32 C-7 32.66 -7 33.32 -7 34 C-9.31 34 -11.62 34 -14 34 C-14 33.34 -14 32.68 -14 32 C-13.34 32 -12.68 32 -12 32 C-11.74476563 31.21689453 -11.74476563 31.21689453 -11.484375 30.41796875 C-8.0841372 20.09065074 -4.2601422 10.00435032 0 0 Z " fill="#48484A" transform="translate(769,1281)"/>
<path d="M0 0 C4.81253455 0.65034251 6.47967851 2.11248438 9.45458984 5.8059082 C10.20023193 6.79337036 10.20023193 6.79337036 10.9609375 7.80078125 C11.79238281 8.89616211 11.79238281 8.89616211 12.640625 10.01367188 C13.21296875 10.77228516 13.7853125 11.53089844 14.375 12.3125 C20.01384391 19.79580261 20.01384391 19.79580261 26 27 C26.33 27 26.66 27 27 27 C26.8612922 23.06221489 26.71281508 19.12485777 26.5625 15.1875 C26.52318359 14.06794922 26.48386719 12.94839844 26.44335938 11.79492188 C26.40146484 10.72177734 26.35957031 9.64863281 26.31640625 8.54296875 C26.27974854 7.55321045 26.24309082 6.56345215 26.20532227 5.54370117 C26.09209669 2.8781649 26.09209669 2.8781649 25 0 C27.31 0 29.62 0 32 0 C31.67 0.99 31.34 1.98 31 3 C30.84820986 5.3555448 30.75100711 7.71475123 30.68359375 10.07421875 C30.66281265 10.7580513 30.64203156 11.44188385 30.62062073 12.1464386 C30.55533846 14.3266921 30.49633983 16.50706405 30.4375 18.6875 C30.39429447 20.16732986 30.35067953 21.64714783 30.30664062 23.12695312 C30.19967917 26.75117622 30.09835177 30.37553189 30 34 C26 34 26 34 24.46362305 32.59814453 C23.98449463 31.94958496 23.50536621 31.30102539 23.01171875 30.6328125 C22.47337402 29.91609375 21.9350293 29.199375 21.38037109 28.4609375 C20.82172363 27.69007812 20.26307617 26.91921875 19.6875 26.125 C19.11080566 25.3515625 18.53411133 24.578125 17.93994141 23.78125 C14.27687884 18.84349533 10.7255507 13.83815029 7.3671875 8.6875 C6.01161675 6.70495411 6.01161675 6.70495411 3 6 C3.33 14.58 3.66 23.16 4 32 C4.66 32 5.32 32 6 32 C6 32.99 6 33.98 6 35 C3.69 34.67 1.38 34.34 -1 34 C-0.84225098 33.46769775 -0.68450195 32.93539551 -0.52197266 32.38696289 C0.61496506 27.18778608 0.4376836 21.74020701 0.625 16.4375 C0.6765625 15.19291016 0.728125 13.94832031 0.78125 12.66601562 C0.82507812 11.47556641 0.86890625 10.28511719 0.9140625 9.05859375 C0.9548291 7.96861084 0.9955957 6.87862793 1.03759766 5.75561523 C1.13805683 2.90874435 1.13805683 2.90874435 0 0 Z " fill="#302F30" transform="translate(1060,1281)"/>
<path d="M0 0 C3 1 3 1 4.24609375 3.08203125 C6.82546295 8.99343805 8.99380348 14.90782649 10.953125 21.05078125 C12.55995358 25.57748118 14.72155028 29.77926528 17 34 C14.36 34 11.72 34 9 34 C9 33.01 9 32.02 9 31 C8.9145287 26.09871008 8.9145287 26.09871008 7 22 C4.81707226 21.76518307 2.62796826 21.58636677 0.4375 21.4375 C-0.76003906 21.35371094 -1.95757813 21.26992187 -3.19140625 21.18359375 C-4.58166016 21.09271484 -4.58166016 21.09271484 -6 21 C-7.64019775 25.55897484 -8.19447287 29.13817832 -8 34 C-9.98 34 -11.96 34 -14 34 C-14 31 -14 31 -12.60522461 29.57080078 C-12.07550049 29.05243652 -11.54577637 28.53407227 -11 28 C-10.0327028 26.04675218 -10.0327028 26.04675218 -9.31640625 23.8671875 C-8.88424805 22.65675781 -8.88424805 22.65675781 -8.44335938 21.421875 C-8.00733398 20.16117188 -8.00733398 20.16117188 -7.5625 18.875 C-5.30548698 12.44378089 -2.86147925 6.18884571 0 0 Z " fill="#2A2A2E" transform="translate(973,1281)"/>
<path d="M0 0 C4.27241677 3.43877447 7.71873747 7.7066263 9.078125 13.11328125 C9.38341143 18.55392156 7.36190234 23.47509229 4.5625 28.0625 C-0.89531146 33.38719411 -5.93696147 33.42155208 -13.26953125 33.33203125 C-18.32221769 32.90214794 -20.630877 31.11548069 -23.8984375 27.40234375 C-27.35415928 22.75334787 -28.26385248 18.5029054 -27.9921875 12.75 C-26.85453087 7.23797349 -23.56956543 3.63083288 -19.1328125 0.3671875 C-13.32533173 -2.44396986 -6.09155751 -1.66133387 0 0 Z M-21.4375 6.0625 C-23.97350479 10.3684248 -24.07688126 14.17357256 -23.4375 19.0625 C-21.87848895 24.16544853 -20.21709469 28.32890725 -15.4375 31.0625 C-10.79317444 31.8387104 -5.73801069 32.12933988 -1.390625 30.11328125 C1.80371156 27.606834 3.69116408 24.98351162 4.5625 21.0625 C5.31545768 14.15646625 4.70109751 9.69559106 0.5625 4.0625 C-3.49195079 0.26703395 -7.17530163 0.51037321 -12.515625 0.640625 C-16.96481142 1.2830209 -18.52152675 2.68610992 -21.4375 6.0625 Z " fill="#2F2F33" transform="translate(1269.4375,1281.9375)"/>
<path d="M0 0 C0.97904297 0.01804687 1.95808594 0.03609375 2.96679688 0.0546875 C5.37412003 0.10165966 7.78093743 0.17339854 10.1875 0.25 C10.1875 3.55 10.1875 6.85 10.1875 10.25 C9.5275 10.25 8.8675 10.25 8.1875 10.25 C7.1975 7.94 6.2075 5.63 5.1875 3.25 C2.7696288 3.14173711 0.35662444 3.06260211 -2.0625 3 C-3.08537109 2.94972656 -3.08537109 2.94972656 -4.12890625 2.8984375 C-7.62754793 2.83050271 -9.43717601 2.95700514 -12.234375 5.140625 C-15.11038222 8.98479307 -15.03572938 11.70757748 -15.125 16.5 C-15.16238281 17.80453125 -15.19976563 19.1090625 -15.23828125 20.453125 C-14.75090983 24.79922608 -13.5546195 26.89230265 -10.8125 30.25 C-7.84208551 31.73520725 -5.11485553 31.4205822 -1.8125 31.4375 C-0.554375 31.45167969 0.70375 31.46585938 2 31.48046875 C5.28104599 31.59263547 5.28104599 31.59263547 7.1875 29.25 C7.41075051 24.71057302 7.29470735 20.67882939 6.1875 16.25 C8.4975 16.25 10.8075 16.25 13.1875 16.25 C12.34681373 30.19852941 12.34681373 30.19852941 8.5 33.6875 C6.6484375 34.09375 6.6484375 34.09375 4.1875 34.25 C3.00414062 34.3428125 1.82078125 34.435625 0.6015625 34.53125 C-6.59553604 34.81404366 -11.01720792 34.8930617 -16.8125 30.25 C-21.03289497 24.76348654 -20.55308747 17.84945725 -19.8125 11.25 C-16.53274649 1.05807779 -9.52573876 -0.33266515 0 0 Z " fill="#343538" transform="translate(1124.8125,1280.75)"/>
<path d="M0 0 C3.50638501 0.05009121 5.28501901 0.08785945 8.375 1.8125 C10.21968287 5.32618166 10.44738916 8.48265864 9.6875 12.3125 C8.01951248 15.1123362 6.86827676 16.78318628 3.875 18.125 C0.80565566 18.38808666 -2.23423905 18.37169733 -5.3125 18.3125 C-6.83741129 15.26267742 -6.45611434 12.09127461 -6.4375 8.75 C-6.44136719 8.05197266 -6.44523438 7.35394531 -6.44921875 6.63476562 C-6.43726375 0.47196226 -6.07723306 0.15293699 0 0 Z " fill="#F4F4F4" transform="translate(1012.3125,1282.6875)"/>
<path d="M0 0 C3.50638501 0.05009121 5.28501901 0.08785945 8.375 1.8125 C10.22099306 5.32867726 10.58280435 8.48848819 9.6875 12.3125 C7.15296343 15.53204645 5.57452695 17.01682435 1.6875 18.3125 C-0.64549825 18.35204234 -2.97958189 18.35651732 -5.3125 18.3125 C-6.83741129 15.26267742 -6.45611434 12.09127461 -6.4375 8.75 C-6.44136719 8.05197266 -6.44523437 7.35394531 -6.44921875 6.63476562 C-6.43726375 0.47196226 -6.07723306 0.15293699 0 0 Z " fill="#F4F4F4" transform="translate(1180.3125,1282.6875)"/>
<path d="M0 0 C1.1765918 0.01450195 1.1765918 0.01450195 2.37695312 0.02929688 C8.14393877 0.14393877 8.14393877 0.14393877 9.3125 1.3125 C9.45365161 3.98308851 9.35497107 6.63682238 9.3125 9.3125 C8.6525 9.3125 7.9925 9.3125 7.3125 9.3125 C7.02375 8.508125 6.735 7.70375 6.4375 6.875 C5.57987432 4.1798532 5.57987432 4.1798532 3.3125 3.3125 C1.64805539 3.2169069 -0.02031963 3.18265355 -1.6875 3.1875 C-3.0178125 3.18363281 -3.0178125 3.18363281 -4.375 3.1796875 C-6.71426966 3.16122098 -6.71426966 3.16122098 -8.6875 4.3125 C-8.77391522 7.67218267 -8.77391522 7.67218267 -7.6875 11.3125 C-5.48681082 13.26701039 -2.98578469 14.36995664 -0.3125 15.5625 C8.03284911 19.51556011 8.03284911 19.51556011 10.3125 22.3125 C10.75 25.75 10.75 25.75 10.3125 29.3125 C8.44541495 31.67747439 6.99188569 32.97280715 4.3125 34.3125 C1.61420926 34.41041023 -1.05234461 34.4515625 -3.75 34.4375 C-4.49572266 34.44136719 -5.24144531 34.44523437 -6.00976562 34.44921875 C-11.56086499 34.43913501 -11.56086499 34.43913501 -12.6875 33.3125 C-12.72842937 30.97952567 -12.72991723 28.64544775 -12.6875 26.3125 C-12.0275 26.3125 -11.3675 26.3125 -10.6875 26.3125 C-10.27757812 27.12976562 -9.86765625 27.94703125 -9.4453125 28.7890625 C-7.91268971 31.62162288 -7.91268971 31.62162288 -4.8046875 31.8359375 C-3.73476563 31.78695313 -2.66484375 31.73796875 -1.5625 31.6875 C-0.48742187 31.65398437 0.58765625 31.62046875 1.6953125 31.5859375 C4.23680896 31.59812503 4.23680896 31.59812503 5.3125 30.3125 C6.06432653 26.9834041 6.06432653 26.9834041 5.3125 23.3125 C2.94526364 21.11127762 0.16915003 19.78924281 -2.6875 18.3125 C-4.15442754 17.4308101 -5.61323716 16.53543435 -7.0625 15.625 C-7.70960938 15.22925781 -8.35671875 14.83351563 -9.0234375 14.42578125 C-10.6875 13.3125 -10.6875 13.3125 -12.6875 11.3125 C-13.09986657 7.60120087 -13.32541189 5.26347682 -11.20703125 2.10546875 C-7.53218149 -0.5096569 -4.39321949 -0.16488313 0 0 Z " fill="#363336" transform="translate(897.6875,1280.6875)"/>
<path d="M0 0 C0 2.97 0 5.94 0 9 C-2.74526635 7.62736683 -3.44355648 5.59407253 -5 3 C-9.19323599 0.903382 -14.44511431 1.44660267 -19 2 C-22.2917472 4.43589292 -23.7476827 6.62152405 -26 10 C-26.77992483 15.88488739 -26.43879992 21.01966909 -23 26 C-20.70600961 28.64156469 -19.1286844 29.85124423 -15.62890625 30.3125 C-10.94787899 30.42378742 -7.26395104 30.0673702 -3 28 C-2.01 28 -1.02 28 0 28 C0 28.66 0 29.32 0 30 C-6.62352628 32.74753683 -12.83006918 33.99087553 -20 33 C-24.92006067 30.67415314 -27.31231435 27.67856392 -30 23 C-31.90182333 17.29453001 -31.2231993 12.31817603 -28.98828125 6.86328125 C-23.1770231 -4.09312245 -10.42603406 -1.60400524 0 0 Z " fill="#1C1C1F" transform="translate(950,1282)"/>
<path d="M0 0 C3.3 0 6.6 0 10 0 C9.67 0.66 9.34 1.32 9 2 C8.34 2 7.68 2 7 2 C7 11.9 7 21.8 7 32 C11.62 31.67 16.24 31.34 21 31 C21.99 29.02 22.98 27.04 24 25 C24.33 25 24.66 25 25 25 C25.09765625 31.15234375 25.09765625 31.15234375 25 33 C24 34 24 34 21.68334961 34.11352539 C20.68311768 34.10828857 19.68288574 34.10305176 18.65234375 34.09765625 C17.57275391 34.09443359 16.49316406 34.09121094 15.38085938 34.08789062 C14.24455078 34.07951172 13.10824219 34.07113281 11.9375 34.0625 C10.79732422 34.05798828 9.65714844 34.05347656 8.48242188 34.04882812 C5.65489649 34.03699747 2.8274736 34.0205141 0 34 C0 33.34 0 32.68 0 32 C0.66 31.67 1.32 31.34 2 31 C2.33 21.43 2.66 11.86 3 2 C2.01 2 1.02 2 0 2 C0 1.34 0 0.68 0 0 Z " fill="#3E4048" transform="translate(723,1281)"/>
<path d="M0 0 C3.51996771 0.26259084 4.82731928 0.83154475 7.39453125 3.3359375 C8.19246094 4.33882812 8.99039063 5.34171875 9.8125 6.375 C10.24191895 6.90939697 10.67133789 7.44379395 11.11376953 7.99438477 C14.62097479 12.40012485 17.95447577 16.93365412 21.2109375 21.52734375 C24.47661679 26.45593403 24.47661679 26.45593403 29 30 C29 30.99 29 31.98 29 33 C26.19836872 32.64669694 25.12801647 32.13312637 23.140625 30.06640625 C22.51671875 29.24011719 21.8928125 28.41382813 21.25 27.5625 C20.5590625 26.66273437 19.868125 25.76296875 19.15625 24.8359375 C18.08890625 23.43214844 18.08890625 23.43214844 17 22 C15.58832896 20.2251817 14.17183658 18.454185 12.75 16.6875 C11.5 15.125 10.25 13.5625 9 12 C8.26265625 11.11957031 7.5253125 10.23914062 6.765625 9.33203125 C5 7 5 7 5 5 C4.34 5 3.68 5 3 5 C3.33 5.99 3.66 6.98 4 8 C4.13684993 9.73672431 4.2244592 11.47756821 4.28125 13.21875 C4.33732422 14.74048828 4.33732422 14.74048828 4.39453125 16.29296875 C4.46484375 18.43098958 4.53515625 20.56901042 4.60546875 22.70703125 C4.66154297 24.22876953 4.66154297 24.22876953 4.71875 25.78125 C4.74904297 26.71001953 4.77933594 27.63878906 4.81054688 28.59570312 C4.91429135 31.14408653 4.91429135 31.14408653 6 34 C3.69 34 1.38 34 -1 34 C-1 33.34 -1 32.68 -1 32 C-0.34 31.67 0.32 31.34 1 31 C1.02473868 27.06731133 1.04287835 23.13465287 1.05493164 19.2019043 C1.06242729 17.20685232 1.07513345 15.21182214 1.08789062 13.21679688 C1.09272461 11.33637695 1.09272461 11.33637695 1.09765625 9.41796875 C1.10289307 8.26063232 1.10812988 7.1032959 1.11352539 5.91088867 C1.13299461 2.93395589 1.13299461 2.93395589 0 0 Z " fill="#272727" transform="translate(797,1281)"/>
<path d="M0 0 C2.90118219 0.04619717 4.56467501 0.19607683 7.25 1.375 C8.6875 3.25 8.6875 3.25 9.25 6.125 C8.6875 9.25 8.6875 9.25 6.75 12.125 C2.6438259 14.97418203 -0.46814006 14.72493725 -5.3125 14.25 C-5.33935938 12.10423363 -5.35883088 9.95837355 -5.375 7.8125 C-5.38660156 6.61753906 -5.39820313 5.42257812 -5.41015625 4.19140625 C-5.26119194 -0.2953989 -4.09715702 0.0804679 0 0 Z " fill="#F9F9F8" transform="translate(1217.3125,1282.75)"/>
<path d="M0 0 C2.64 0 5.28 0 8 0 C7.67 0.99 7.34 1.98 7 3 C6.90474323 5.1754489 6.8692687 7.35371759 6.8671875 9.53125 C6.86589844 10.81644531 6.86460938 12.10164063 6.86328125 13.42578125 C6.86537598 14.09432129 6.8674707 14.76286133 6.86962891 15.45166016 C6.87498057 17.49258865 6.86967604 19.53329709 6.86328125 21.57421875 C6.86521484 23.50201172 6.86521484 23.50201172 6.8671875 25.46875 C6.86831543 26.64888672 6.86944336 27.82902344 6.87060547 29.04492188 C6.86716025 32.05885516 6.86716025 32.05885516 8 35 C5.36 35 2.72 35 0 35 C0.16226074 34.47220947 0.32452148 33.94441895 0.49169922 33.40063477 C1.12302607 30.41896477 1.12977768 27.6383167 1.1328125 24.58984375 C1.13410156 23.35298828 1.13539062 22.11613281 1.13671875 20.84179688 C1.13285156 19.55337891 1.12898438 18.26496094 1.125 16.9375 C1.12886719 15.64521484 1.13273437 14.35292969 1.13671875 13.02148438 C1.13478516 11.16813477 1.13478516 11.16813477 1.1328125 9.27734375 C1.13168457 8.14546631 1.13055664 7.01358887 1.12939453 5.84741211 C1.12630087 2.92417708 1.12630087 2.92417708 0 0 Z " fill="#49494C" transform="translate(1038,1281)"/>
<path d="M0 0 C2.31 0 4.62 0 7 0 C6.15931373 13.94852941 6.15931373 13.94852941 2.3125 17.4375 C0.4609375 17.84375 0.4609375 17.84375 -2 18 C-3.18335938 18.0928125 -4.36671875 18.185625 -5.5859375 18.28125 C-12.7694698 18.5635106 -17.22270234 18.65800005 -23 14 C-24.375 11.75 -24.375 11.75 -25 10 C-24.34 9.34 -23.68 8.68 -23 8 C-22.34 8 -21.68 8 -21 8 C-19.64721885 9.98689731 -18.31431695 11.98745218 -17 14 C-14.02958551 15.48520725 -11.30235553 15.1705822 -8 15.1875 C-6.741875 15.20167969 -5.48375 15.21585938 -4.1875 15.23046875 C-0.90645401 15.34263547 -0.90645401 15.34263547 1 13 C1.22325051 8.46057302 1.10720735 4.42882939 0 0 Z " fill="#39383C" transform="translate(1131,1297)"/>
<path d="M0 0 C0.8971875 0.309375 0.8971875 0.309375 1.8125 0.625 C0.31510417 1.796875 -1.18229167 2.96875 -2.6796875 4.140625 C-5.55954886 6.97572167 -6.48990899 9.82725328 -6.5625 13.8125 C-6.42652426 18.95408269 -5.10037106 23.361616 -2.1875 27.625 C0.86413465 29.73995839 0.86413465 29.73995839 3.8125 30.625 C3.8125 30.955 3.8125 31.285 3.8125 31.625 C-0.27960216 32.11215502 -1.88816937 31.82455376 -5.375 29.5 C-9.79284796 25.32565548 -11.37492501 21.28453986 -11.75 15.25 C-11.60383267 9.29774145 -9.40012318 5.71462688 -5.1875 1.625 C-2.1875 -0.375 -2.1875 -0.375 0 0 Z " fill="#3B3A3F" transform="translate(1253.1875,1282.375)"/>
<path d="M0 0 C1.32 0 2.64 0 4 0 C3.98839844 1.07636719 3.97679687 2.15273437 3.96484375 3.26171875 C3.40513648 18.34388861 3.40513648 18.34388861 6 33 C3.03 33 0.06 33 -3 33 C-3 32.34 -3 31.68 -3 31 C-2.34 30.67 -1.68 30.34 -1 30 C-0.67 20.1 -0.34 10.2 0 0 Z " fill="#26252D" transform="translate(1171,1282)"/>
<path d="M0 0 C2.87557703 -0.08138426 5.74882262 -0.14067851 8.625 -0.1875 C9.43324219 -0.21263672 10.24148438 -0.23777344 11.07421875 -0.26367188 C16.14230591 -0.32547782 19.63703837 0.12044532 24 3 C26.68277915 7.02416873 26.79769475 10.27199673 26 15 C22.7653271 19.60695837 19.44469068 20.96738625 14 22 C11.66784156 22.07403678 9.33139212 22.09515886 7 22 C7 21.34 7 20.68 7 20 C8.13888672 19.85304688 8.13888672 19.85304688 9.30078125 19.703125 C10.29464844 19.55359375 11.28851562 19.4040625 12.3125 19.25 C13.29863281 19.11078125 14.28476562 18.9715625 15.30078125 18.828125 C18.53588679 17.835589 19.41539189 16.95192882 21 14 C21.56090179 11.13500163 21.28327886 8.97442801 21 6 C19.46326178 3.90780705 18.55727447 3.12090323 16.00708008 2.56762695 C14.89949341 2.52835083 14.89949341 2.52835083 13.76953125 2.48828125 C12.56586914 2.43510742 12.56586914 2.43510742 11.33789062 2.38085938 C10.50451172 2.35830078 9.67113281 2.33574219 8.8125 2.3125 C7.5450293 2.26125977 7.5450293 2.26125977 6.25195312 2.20898438 C4.16843351 2.12658529 2.08423784 2.06161355 0 2 C0 1.34 0 0.68 0 0 Z " fill="#3D3D44" transform="translate(1000,1281)"/>
<path d="M0 0 C0.06058594 0.67546875 0.12117188 1.3509375 0.18359375 2.046875 C0.26738281 2.93890625 0.35117188 3.8309375 0.4375 4.75 C0.55931641 6.07257813 0.55931641 6.07257813 0.68359375 7.421875 C0.92831575 9.91028916 0.92831575 9.91028916 1.51367188 11.91796875 C2.30854897 15.32093655 2.10240605 18.77510368 2.0625 22.25 C2.05798828 22.99507812 2.05347656 23.74015625 2.04882812 24.5078125 C2.03709246 26.3385764 2.0191585 28.16929873 2 30 C-0.31 30 -2.62 30 -5 30 C-4.84152588 29.46084961 -4.68305176 28.92169922 -4.51977539 28.36621094 C-3.91090977 25.59442811 -3.78489684 22.97711149 -3.68359375 20.140625 C-3.64169922 19.02558594 -3.59980469 17.91054687 -3.55664062 16.76171875 C-3.51732422 15.60285156 -3.47800781 14.44398437 -3.4375 13.25 C-3.37272461 11.48849609 -3.37272461 11.48849609 -3.30664062 9.69140625 C-3.20065206 6.79438549 -3.09858362 3.89728065 -3 1 C-1 0 -1 0 0 0 Z " fill="#2B2A2E" transform="translate(1211,1285)"/>
<path d="M0 0 C2.31 0.33 4.62 0.66 7 1 C6.67 1.66 6.34 2.32 6 3 C5.84479443 5.32273159 5.74980833 7.64959313 5.68359375 9.9765625 C5.66281265 10.66181 5.64203156 11.3470575 5.62062073 12.05307007 C5.55519815 14.24361069 5.49627446 16.43427189 5.4375 18.625 C5.39430782 20.1093875 5.3506933 21.59376278 5.30664062 23.078125 C5.19952447 26.71862084 5.09823638 30.35925251 5 34 C3.02 34 1.04 34 -1 34 C-1 33.34 -1 32.68 -1 32 C-0.34 31.67 0.32 31.34 1 31 C1.02473868 27.06731133 1.04287835 23.13465287 1.05493164 19.2019043 C1.06242729 17.20685232 1.07513345 15.21182214 1.08789062 13.21679688 C1.09272461 11.33637695 1.09272461 11.33637695 1.09765625 9.41796875 C1.10289307 8.26063232 1.10812988 7.1032959 1.11352539 5.91088867 C1.13299461 2.93395589 1.13299461 2.93395589 0 0 Z " fill="#18191C" transform="translate(842,1281)"/>
<path d="M0 0 C8.91 0 17.82 0 27 0 C27 0.33 27 0.66 27 1 C18.42 1 9.84 1 1 1 C1 3.64 1 6.28 1 9 C1.721875 8.79375 2.44375 8.5875 3.1875 8.375 C6 8 6 8 11 10 C11 28.15 11 46.3 11 65 C10.01 65.495 10.01 65.495 9 66 C9.33 47.85 9.66 29.7 10 11 C7.36 11 4.72 11 2 11 C1.34 10.67 0.68 10.34 0 10 C0 6.7 0 3.4 0 0 Z " fill="#A0A77F" transform="translate(857,1100)"/>
<path d="M0 0 C2.31 0 4.62 0 7 0 C6.67 0.99 6.34 1.98 6 3 C5.84820986 5.3555448 5.75100711 7.71475123 5.68359375 10.07421875 C5.66281265 10.7580513 5.64203156 11.44188385 5.62062073 12.1464386 C5.55533846 14.3266921 5.49633983 16.50706405 5.4375 18.6875 C5.39429447 20.16732986 5.35067953 21.64714783 5.30664062 23.12695312 C5.19967917 26.75117622 5.09835177 30.37553189 5 34 C3.68 33.67 2.36 33.34 1 33 C1.99 33 2.98 33 4 33 C4 32.01 4 31.02 4 30 C3.01 30 2.02 30 1 30 C1.33 29.01 1.66 28.02 2 27 C2.02730127 25.18747925 1.99012754 23.37362974 1.9140625 21.5625 C1.87023438 20.50289062 1.82640625 19.44328125 1.78125 18.3515625 C1.7296875 17.24554687 1.678125 16.13953125 1.625 15 C1.58117188 13.89398437 1.53734375 12.78796875 1.4921875 11.6484375 C1.30705171 5.72901212 1.30705171 5.72901212 0 0 Z " fill="#5F5F61" transform="translate(1085,1281)"/>
<path d="M0 0 C3.52891355 2.35260903 3.84198976 3.58203916 5.1875 7.5 C5.53167969 8.4796875 5.87585938 9.459375 6.23046875 10.46875 C7 13 7 13 7 15 C3.04 15 -0.92 15 -5 15 C-4.43174347 9.45949887 -2.37113483 4.96284034 0 0 Z " fill="#EFEFEE" transform="translate(769,1286)"/>
<path d="M0 0 C2.217841 2.217841 2.50134426 3.35153274 3.3125 6.3125 C4.67950497 10.65762295 6.53161004 12.97627542 10 16 C10.66 16.99 11.32 17.98 12 19 C8.8125 19.5 8.8125 19.5 5 19 C1.93345652 15.73010483 0.27411124 11.65548339 -1.4375 7.5625 C-2.8044318 4.6620572 -2.8044318 4.6620572 -6.1875 4.125 C-7.115625 4.08375 -8.04375 4.0425 -9 4 C-8.67 3.01 -8.34 2.02 -8 1 C-1.9453125 0.0234375 -1.9453125 0.0234375 0 0 Z " fill="#302E31" transform="translate(1221,1296)"/>
<path d="M0 0 C3.08028948 2.77226053 4.83016411 5.00306072 6 9 C6 10.65 6 12.3 6 14 C2.37 14 -1.26 14 -5 14 C-4.23539233 10.17696167 -3.52385218 7.61606762 -1.9375 4.1875 C-1.39416016 3.00220703 -1.39416016 3.00220703 -0.83984375 1.79296875 C-0.56269531 1.20128906 -0.28554688 0.60960937 0 0 Z " fill="#EFF0EE" transform="translate(973,1287)"/>
<path d="M0 0 C3 1 3 1 4.421875 3.22265625 C7.31826664 9.41582308 8.64400325 13.29752519 7 20 C6.67 20 6.34 20 6 20 C5.81824219 19.31292969 5.63648438 18.62585937 5.44921875 17.91796875 C5.07216797 16.56638672 5.07216797 16.56638672 4.6875 15.1875 C4.32205078 13.84751953 4.32205078 13.84751953 3.94921875 12.48046875 C3.06027829 9.65259648 3.06027829 9.65259648 0 7 C-1.32 10.3 -2.64 13.6 -4 17 C-4.66 17 -5.32 17 -6 17 C-4.13236819 11.27789404 -2.14710968 5.62338249 0 0 Z " fill="#3A3A3D" transform="translate(973,1281)"/>
<path d="M0 0 C1.1765918 0.01450195 1.1765918 0.01450195 2.37695312 0.02929688 C8.14393877 0.14393877 8.14393877 0.14393877 9.3125 1.3125 C9.45365161 3.98308851 9.35497107 6.63682238 9.3125 9.3125 C8.6525 9.3125 7.9925 9.3125 7.3125 9.3125 C7.02375 8.508125 6.735 7.70375 6.4375 6.875 C5.57987432 4.1798532 5.57987432 4.1798532 3.3125 3.3125 C1.64805539 3.2169069 -0.02031963 3.18265355 -1.6875 3.1875 C-3.0178125 3.18363281 -3.0178125 3.18363281 -4.375 3.1796875 C-6.71426966 3.16122098 -6.71426966 3.16122098 -8.6875 4.3125 C-8.831875 5.116875 -8.97625 5.92125 -9.125 6.75 C-9.6875 9.3125 -9.6875 9.3125 -12.6875 11.3125 C-13.17012619 5.03835955 -13.17012619 5.03835955 -11.21484375 2.09765625 C-7.53248565 -0.5033293 -4.39252255 -0.16485698 0 0 Z " fill="#525153" transform="translate(897.6875,1280.6875)"/>
<path d="M0 0 C2.64 0 5.28 0 8 0 C7.67854004 0.69762451 7.35708008 1.39524902 7.02587891 2.11401367 C5.89993577 5.28149911 5.68507174 7.82173944 5.5859375 11.17578125 C5.54726562 12.33271484 5.50859375 13.48964844 5.46875 14.68164062 C5.42234375 16.47891602 5.42234375 16.47891602 5.375 18.3125 C5.33632812 19.53001953 5.29765625 20.74753906 5.2578125 22.00195312 C5.16371998 25.00115228 5.07807791 28.00034823 5 31 C4.01 30.34 3.02 29.68 2 29 C1.58349609 26.43383789 1.58349609 26.43383789 1.5234375 23.22265625 C1.47703125 21.49305664 1.47703125 21.49305664 1.4296875 19.72851562 C1.41164063 18.51873047 1.39359375 17.30894531 1.375 16.0625 C1.32402839 13.67830308 1.26950645 11.29417864 1.2109375 8.91015625 C1.19337402 7.84933838 1.17581055 6.78852051 1.15771484 5.69555664 C1.11152687 2.90078736 1.11152687 2.90078736 0 0 Z " fill="#1B1B1E" transform="translate(1038,1281)"/>
<path d="M0 0 C0.33 0 0.66 0 1 0 C1 2.64 1 5.28 1 8 C-10.88 8 -22.76 8 -35 8 C-34.67 7.01 -34.34 6.02 -34 5 C-33.46117187 5.08378906 -32.92234375 5.16757813 -32.3671875 5.25390625 C-21.93526255 6.54563363 -11.45639976 5.6101988 -1 5 C-0.67 3.35 -0.34 1.7 0 0 Z " fill="#899367" transform="translate(1317,1183)"/>
<path d="M0 0 C0 0.66 0 1.32 0 2 C-12.21 2 -24.42 2 -37 2 C-37 1.34 -37 0.68 -37 0 C-32.37375882 -0.16794307 -27.74734145 -0.32846718 -23.12060547 -0.48217773 C-21.54729317 -0.53548564 -19.97404769 -0.59080589 -18.40087891 -0.64819336 C-16.13719081 -0.73041829 -13.87335962 -0.8053589 -11.609375 -0.87890625 C-10.90818542 -0.90594131 -10.20699585 -0.93297638 -9.48455811 -0.96083069 C-6.15257463 -1.06222717 -3.18290477 -1.05977883 0 0 Z " fill="#8C946E" transform="translate(1163,1189)"/>
<path d="M0 0 C0.66 0 1.32 0 2 0 C2 1.32 2 2.64 2 4 C-2.32331963 4.02480062 -6.64660106 4.04290758 -10.9699707 4.05493164 C-12.43937909 4.05994669 -13.90878252 4.06676033 -15.37817383 4.07543945 C-17.49561795 4.08762928 -19.61299583 4.09325669 -21.73046875 4.09765625 C-23.63928833 4.10551147 -23.63928833 4.10551147 -25.58666992 4.11352539 C-28.5370919 4.01539606 -31.13946675 3.69063835 -34 3 C-34 2.67 -34 2.34 -34 2 C-22.78 2 -11.56 2 0 2 C0 1.34 0 0.68 0 0 Z " fill="#8B9561" transform="translate(669,1187)"/>
<path d="M0 0 C0.99 0.33 1.98 0.66 3 1 C2.34 1 1.68 1 1 1 C1.33 1.99 1.66 2.98 2 4 C2.13684993 5.73672431 2.2244592 7.47756821 2.28125 9.21875 C2.33732422 10.74048828 2.33732422 10.74048828 2.39453125 12.29296875 C2.46484375 14.43098958 2.53515625 16.56901042 2.60546875 18.70703125 C2.66154297 20.22876953 2.66154297 20.22876953 2.71875 21.78125 C2.74904297 22.71001953 2.77933594 23.63878906 2.81054688 24.59570312 C2.91429135 27.14408653 2.91429135 27.14408653 4 30 C1.69 30 -0.62 30 -3 30 C-3 29.34 -3 28.68 -3 28 C-2.34 27.67 -1.68 27.34 -1 27 C-0.67 18.09 -0.34 9.18 0 0 Z " fill="#252527" transform="translate(799,1285)"/>
<path d="M0 0 C3.3 0 6.6 0 10 0 C10 2.97 10 5.94 10 9 C9.34 8.01 8.68 7.02 8 6 C7.67 6.33 7.34 6.66 7 7 C4.66702567 7.04092937 2.33294775 7.04241723 0 7 C0 4.69 0 2.38 0 0 Z " fill="#9EA879" transform="translate(1309,1182)"/>
<path d="M0 0 C6.93 0 13.86 0 21 0 C21 3.3 21 6.6 21 10 C20.34 10 19.68 10 19 10 C18.01 7.69 17.02 5.38 16 3 C14.64455078 2.92652344 14.64455078 2.92652344 13.26171875 2.8515625 C11.49248047 2.73941406 11.49248047 2.73941406 9.6875 2.625 C8.51574219 2.55539062 7.34398437 2.48578125 6.13671875 2.4140625 C3 2 3 2 0 0 Z " fill="#69686C" transform="translate(1114,1281)"/>
<path d="M0 0 C2.31 0 4.62 0 7 0 C6.34 4.95 5.68 9.9 5 15 C3.68 15.33 2.36 15.66 1 16 C1.01160156 15.26394531 1.02320313 14.52789063 1.03515625 13.76953125 C1.04417969 12.79371094 1.05320312 11.81789063 1.0625 10.8125 C1.07410156 9.84957031 1.08570313 8.88664062 1.09765625 7.89453125 C1.00486622 5.14423487 0.62111685 2.67520409 0 0 Z " fill="#2E2F34" transform="translate(1131,1297)"/>
<path d="M0 0 C0.33 0 0.66 0 1 0 C1 9.57 1 19.14 1 29 C4.3 29 7.6 29 11 29 C11.99 29.66 12.98 30.32 14 31 C4.595 31.495 4.595 31.495 -5 32 C-5 31.67 -5 31.34 -5 31 C-3.35 31 -1.7 31 0 31 C0 20.77 0 10.54 0 0 Z " fill="#919192" transform="translate(847,1284)"/>
<path d="M0 0 C0.33 0 0.66 0 1 0 C1.66 7.92 2.32 15.84 3 24 C3.66 24 4.32 24 5 24 C5 24.99 5 25.98 5 27 C2.69 26.67 0.38 26.34 -2 26 C-1.84152588 25.44731445 -1.68305176 24.89462891 -1.51977539 24.32519531 C-0.95067733 21.77935695 -0.7896572 19.40300555 -0.68359375 16.796875 C-0.64169922 15.8171875 -0.59980469 14.8375 -0.55664062 13.828125 C-0.51732422 12.81234375 -0.47800781 11.7965625 -0.4375 10.75 C-0.39431641 9.71875 -0.35113281 8.6875 -0.30664062 7.625 C-0.20074318 5.0834613 -0.09866557 2.54182804 0 0 Z " fill="#434143" transform="translate(1061,1289)"/>
<path d="M0 0 C2.31 0 4.62 0 7 0 C6.67 0.99 6.34 1.98 6 3 C5.78323842 4.98968251 5.61090121 6.98435019 5.46484375 8.98046875 C5.37783203 10.14384766 5.29082031 11.30722656 5.20117188 12.50585938 C5.0706543 14.32827148 5.0706543 14.32827148 4.9375 16.1875 C4.84662109 17.41404297 4.75574219 18.64058594 4.66210938 19.90429688 C4.43797842 22.93596295 4.2174188 25.96784637 4 29 C3.67 29 3.34 29 3 29 C2.67 20.42 2.34 11.84 2 3 C1.34 2.67 0.68 2.34 0 2 C0 1.34 0 0.68 0 0 Z " fill="#2E2E30" transform="translate(822,1281)"/>
<path d="M0 0 C0.5775 0.226875 1.155 0.45375 1.75 0.6875 C0.821875 1.368125 -0.10625 2.04875 -1.0625 2.75 C-6.05996352 6.92241058 -7.48164612 12.38699816 -8.25 18.6875 C-8.91 18.6875 -9.57 18.6875 -10.25 18.6875 C-10.60892545 13.64260345 -10.83426255 9.83515859 -8.5 5.25 C-3.4673913 -0.48158213 -3.4673913 -0.48158213 0 0 Z " fill="#2E2D30" transform="translate(1253.25,1282.3125)"/>
<path d="M0 0 C0.88300781 0.02707031 1.76601562 0.05414062 2.67578125 0.08203125 C3.67158203 0.13423828 3.67158203 0.13423828 4.6875 0.1875 C4.6875 0.5175 4.6875 0.8475 4.6875 1.1875 C4.08421875 1.21328125 3.4809375 1.2390625 2.859375 1.265625 C2.06015625 1.32234375 1.2609375 1.3790625 0.4375 1.4375 C-0.35140625 1.48390625 -1.1403125 1.5303125 -1.953125 1.578125 C-5.18033388 2.41164253 -6.26859173 3.55237859 -8.3125 6.1875 C-8.73051769 8.8548866 -8.91719958 11.12858981 -8.921875 13.796875 C-8.93841125 14.52368469 -8.95494751 15.25049438 -8.97198486 15.99932861 C-9.02042361 18.31213869 -9.04182489 20.62429157 -9.0625 22.9375 C-9.09066341 24.50914757 -9.12059137 26.08076459 -9.15234375 27.65234375 C-9.22618047 31.49734169 -9.27577948 35.34197572 -9.3125 39.1875 C-9.6425 39.1875 -9.9725 39.1875 -10.3125 39.1875 C-10.43605727 34.11556922 -10.52681615 29.04451304 -10.5871582 23.97143555 C-10.61231005 22.24569441 -10.64643619 20.52005988 -10.68969727 18.79467773 C-10.75032433 16.31467419 -10.77870101 13.83607778 -10.80078125 11.35546875 C-10.82658768 10.58349655 -10.8523941 9.81152435 -10.87898254 9.01615906 C-10.88012695 6.83276367 -10.88012695 6.83276367 -10.3125 3.1875 C-6.92441619 0.33142935 -4.36537912 -0.17461516 0 0 Z " fill="#D6DCCD" transform="translate(1319.3125,1108.8125)"/>
<path d="M0 0 C0.33 0 0.66 0 1 0 C1.33 2.97 1.66 5.94 2 9 C2.33 9 2.66 9 3 9 C3.06058594 9.67546875 3.12117188 10.3509375 3.18359375 11.046875 C3.26738281 11.93890625 3.35117188 12.8309375 3.4375 13.75 C3.51871094 14.63171875 3.59992188 15.5134375 3.68359375 16.421875 C3.96238465 18.69350452 4.38790577 20.79851823 5 23 C2.69 23 0.38 23 -2 23 C-1.84152588 22.4337793 -1.68305176 21.86755859 -1.51977539 21.28417969 C-0.99214152 18.9654655 -0.795844 16.82641603 -0.68359375 14.453125 C-0.64169922 13.60878906 -0.59980469 12.76445313 -0.55664062 11.89453125 C-0.51732422 11.02183594 -0.47800781 10.14914062 -0.4375 9.25 C-0.39431641 8.36183594 -0.35113281 7.47367188 -0.30664062 6.55859375 C-0.20086385 4.37254037 -0.09877454 2.18637911 0 0 Z " fill="#18161B" transform="translate(1208,1292)"/>
<path d="M0 0 C6.7685324 -0.10152799 13.30324864 -0.03026944 20 1 C20 3.97 20 6.94 20 10 C17.25473365 8.62736683 16.55644352 6.59407253 15 4 C11.73485494 2.36742747 8.13841388 2.60198086 4.53125 2.37890625 C2 2 2 2 0 0 Z " fill="#424046" transform="translate(930,1281)"/>
<path d="M0 0 C8.91 0 17.82 0 27 0 C27 0.33 27 0.66 27 1 C18.42 1 9.84 1 1 1 C1 3.64 1 6.28 1 9 C1.763125 8.814375 2.52625 8.62875 3.3125 8.4375 C6 8 6 8 9 9 C9 9.66 9 10.32 9 11 C2.25 11.125 2.25 11.125 0 10 C0 6.7 0 3.4 0 0 Z " fill="#C2C8AC" transform="translate(857,1100)"/>
<path d="M0 0 C0.68707555 2.49064888 1 4.37886292 1 7 C-3.84909736 11.45592731 -7.22636481 12.12647164 -13.6875 12.0625 C-15.45673828 12.04896484 -15.45673828 12.04896484 -17.26171875 12.03515625 C-18.16535156 12.02355469 -19.06898437 12.01195312 -20 12 C-17.08108702 10.34528743 -14.89910536 9.77534964 -11.5625 9.625 C-7.27564012 9.21605613 -4.98960049 8.26138235 -2 5 C-0.66701026 2.38181544 -0.66701026 2.38181544 0 0 Z " fill="#454547" transform="translate(1273,1303)"/>
<path d="M0 0 C0.99 0 1.98 0 3 0 C3.84600276 2.0364495 4.6762825 4.07943487 5.5 6.125 C5.9640625 7.26195312 6.428125 8.39890625 6.90625 9.5703125 C7.98315041 12.9471645 8.21360807 15.48614728 8 19 C5.02174618 17.51087309 4.68847188 15.34844072 3.4375 12.3125 C3.00308594 11.27738281 2.56867187 10.24226563 2.12109375 9.17578125 C1.03529893 6.09999312 0.43052122 3.22649051 0 0 Z " fill="#393A3C" transform="translate(769,1281)"/>
<path d="M0 0 C0.33 0 0.66 0 1 0 C1.09765625 6.15234375 1.09765625 6.15234375 1 8 C0 9 0 9 -3.81640625 9.09765625 C-5.39846682 9.09098089 -6.98051159 9.07901875 -8.5625 9.0625 C-9.36880859 9.05798828 -10.17511719 9.05347656 -11.00585938 9.04882812 C-13.00393756 9.03700518 -15.00197783 9.01906914 -17 9 C-17 8.34 -17 7.68 -17 7 C-15.53626953 6.99613281 -15.53626953 6.99613281 -14.04296875 6.9921875 C-12.13451172 6.93417969 -12.13451172 6.93417969 -10.1875 6.875 C-8.92292969 6.85179687 -7.65835938 6.82859375 -6.35546875 6.8046875 C-2.72207527 6.34396873 -2.72207527 6.34396873 -1.05078125 2.9453125 C-0.70402344 1.97335937 -0.35726562 1.00140625 0 0 Z " fill="#5C5C5D" transform="translate(747,1306)"/>
<path d="M0 0 C0.33 0 0.66 0 1 0 C1 9.9 1 19.8 1 30 C-0.98 30 -2.96 30 -5 30 C-5 29.34 -5 28.68 -5 28 C-4.34 27.67 -3.68 27.34 -3 27 C-1.00328076 23.86876103 -0.70830693 21.24920785 -0.5859375 17.578125 C-0.52792969 16.04091797 -0.52792969 16.04091797 -0.46875 14.47265625 C-0.4378125 13.40917969 -0.406875 12.34570312 -0.375 11.25 C-0.33632813 10.17105469 -0.29765625 9.09210938 -0.2578125 7.98046875 C-0.16365369 5.32048225 -0.07802613 2.6605006 0 0 Z " fill="#0C0C0F" transform="translate(846,1285)"/>
<path d="M0 0 C0.66 0 1.32 0 2 0 C2.40863281 0.79792969 2.81726563 1.59585937 3.23828125 2.41796875 C4.79099202 5.26391508 4.79099202 5.26391508 7.91796875 5.92578125 C9.53638672 6.11720703 9.53638672 6.11720703 11.1875 6.3125 C12.27417969 6.45300781 13.36085938 6.59351563 14.48046875 6.73828125 C15.31191406 6.82464844 16.14335938 6.91101562 17 7 C17 7.33 17 7.66 17 8 C14.35409986 8.02684679 11.70846904 8.04676357 9.0625 8.0625 C7.93038086 8.07506836 7.93038086 8.07506836 6.77539062 8.08789062 C4.85005687 8.09652441 2.92464419 8.05224333 1 8 C0 7 0 7 -0.0625 3.4375 C-0.041875 2.303125 -0.02125 1.16875 0 0 Z " fill="#3C393D" transform="translate(885,1307)"/>
<path d="M0 0 C1.32 0 2.64 0 4 0 C4.71749446 5.97912053 4.71749446 5.97912053 2.734375 8.80078125 C1.21648088 10.34446483 -0.23189224 11.74949891 -2 13 C-2.66 13 -3.32 13 -4 13 C-2.125 8.125 -2.125 8.125 -1 7 C-0.63239269 4.67182036 -0.29758419 2.3381615 0 0 Z " fill="#333235" transform="translate(1226,1285)"/>
<path d="M0 0 C0.33 1.32 0.66 2.64 1 4 C1.66 4 2.32 4 3 4 C4.33333333 5.33333333 5.66666667 6.66666667 7 8 C9.13309192 9.23512079 9.13309192 9.23512079 11 10 C11 10.99 11 11.98 11 13 C6.53311774 11.75342821 3.1751122 10.45526916 0 7 C-0.3125 3.25 -0.3125 3.25 0 0 Z " fill="#1A171A" transform="translate(886,1286)"/>
<path d="M0 0 C2 2 2 2 2 6 C0.68 6.33 -0.64 6.66 -2 7 C-2.33 6.34 -2.66 5.68 -3 5 C-6.02934491 4.34227572 -6.02934491 4.34227572 -9 4 C-8.67 3.01 -8.34 2.02 -8 1 C-1.9453125 0.0234375 -1.9453125 0.0234375 0 0 Z " fill="#58565A" transform="translate(1221,1296)"/>
<path d="M0 0 C0.33 4.62 0.66 9.24 1 14 C0.01 14 -0.98 14 -2 14 C-3.32229189 11.35541621 -3.09677194 9.32238699 -3.0625 6.375 C-3.05347656 5.37210938 -3.04445313 4.36921875 -3.03515625 3.3359375 C-3.02355469 2.56507812 -3.01195312 1.79421875 -3 1 C-1 0 -1 0 0 0 Z " fill="#121216" transform="translate(1108,1293)"/>
<path d="M0 0 C0.33 0.66 0.66 1.32 1 2 C1.66 2.33 2.32 2.66 3 3 C-3.19148 7.36217909 -6.47199469 8.14476933 -14 8 C-14 7.34 -14 6.68 -14 6 C-13.32453125 5.90203125 -12.6490625 5.8040625 -11.953125 5.703125 C-5.04032595 4.62920914 -5.04032595 4.62920914 0 0 Z " fill="#4A494C" transform="translate(1189,1295)"/>
<path d="M0 0 C0.33 0 0.66 0 1 0 C1.1953125 2.05078125 1.390625 4.1015625 1.5859375 6.15234375 C1.72257813 6.76207031 1.85921875 7.37179687 2 8 C2.66 8.33 3.32 8.66 4 9 C4 9.66 4 10.32 4 11 C0.7 11 -2.6 11 -6 11 C-5.34 9.68 -4.68 8.36 -4 7 C-3.01 7.33 -2.02 7.66 -1 8 C-0.67 5.36 -0.34 2.72 0 0 Z " fill="#45444A" transform="translate(1006,1304)"/>
<path d="M0 0 C-0.93590504 1.1055189 -1.87379858 2.20935453 -2.8125 3.3125 C-3.59560547 4.23482422 -3.59560547 4.23482422 -4.39453125 5.17578125 C-5.87172469 6.85424679 -7.40039131 8.43882034 -9 10 C-9.66 9.67 -10.32 9.34 -11 9 C-9.03329621 3.09988863 -6.66164979 -0.74018331 0 0 Z " fill="#302F33" transform="translate(932,1282)"/>
<path d="M0 0 C0.33 0 0.66 0 1 0 C1 8.25 1 16.5 1 25 C-1.64 25 -4.28 25 -7 25 C-6.38125 24.71125 -5.7625 24.4225 -5.125 24.125 C-2.86674235 23.06279958 -2.86674235 23.06279958 -1 21 C-0.62995706 18.77341846 -0.62995706 18.77341846 -0.5859375 16.2109375 C-0.52792969 14.79941406 -0.52792969 14.79941406 -0.46875 13.359375 C-0.42234375 11.88210938 -0.42234375 11.88210938 -0.375 10.375 C-0.33632812 9.38242188 -0.29765625 8.38984375 -0.2578125 7.3671875 C-0.1633686 4.91164615 -0.07780125 2.4561159 0 0 Z " fill="#ADAF9A" transform="translate(1189,1101)"/>
<path d="M0 0 C0.66 1.32 1.32 2.64 2 4 C-3.65502877 7.61293505 -7.28376788 8.12915831 -14 8 C-14 7.34 -14 6.68 -14 6 C-12.86111328 5.85304688 -12.86111328 5.85304688 -11.69921875 5.703125 C-10.70535156 5.55359375 -9.71148438 5.4040625 -8.6875 5.25 C-7.70136719 5.11078125 -6.71523438 4.9715625 -5.69921875 4.828125 C-2.53202216 3.85642358 -1.66599922 2.79751404 0 0 Z " fill="#4C4C50" transform="translate(1021,1295)"/>
<path d="M0 0 C0.66 0 1.32 0 2 0 C2.3152595 5.98993047 1.68219822 9.63560356 -1 15 C-1.66 14.67 -2.32 14.34 -3 14 C-2.01 9.38 -1.02 4.76 0 0 Z " fill="#18181C" transform="translate(1276,1293)"/>
<path d="M0 0 C0 0.66 0 1.32 0 2 C-6.78743178 4.81552726 -12.68889006 5.3689719 -20 5 C-16.8289676 3.20408354 -13.96206414 2.51278387 -10.375 1.9375 C-6.78261823 1.35482146 -3.56338708 0 0 0 Z " fill="#423F46" transform="translate(950,1310)"/>
<path d="M0 0 C0.99 0.33 1.98 0.66 3 1 C1.56835889 4.65938172 0.01065704 8.23988068 -1.625 11.8125 C-2.29402344 13.27623047 -2.29402344 13.27623047 -2.9765625 14.76953125 C-3.48316406 15.87361328 -3.48316406 15.87361328 -4 17 C-4.66 17 -5.32 17 -6 17 C-4.13236819 11.27789404 -2.14710968 5.62338249 0 0 Z " fill="#5B5A5C" transform="translate(973,1281)"/>
<path d="M0 0 C3.96 0 7.92 0 12 0 C8.71299843 1.64350079 6.52069985 2.41321669 3 3 C2.67 5.31 2.34 7.62 2 10 C1.34 9.67 0.68 9.34 0 9 C0 6.03 0 3.06 0 0 Z " fill="#8B9866" transform="translate(797,1101)"/>
<path d="M0 0 C2.0622048 -0.054348 4.12482816 -0.09294961 6.1875 -0.125 C7.33605469 -0.14820313 8.48460937 -0.17140625 9.66796875 -0.1953125 C12.91740372 -0.00484152 15.08660521 0.60639873 18 2 C17.01 2.99 16.02 3.98 15 5 C14.34 4.34 13.68 3.68 13 3 C10.40293907 2.61195187 10.40293907 2.61195187 7.5 2.5 C2.22222222 2.22222222 2.22222222 2.22222222 0 0 Z " fill="#514F51" transform="translate(1253,1281)"/>
<path d="M0 0 C2.475 0.495 2.475 0.495 5 1 C5 2.32 5 3.64 5 5 C4.67 5.33 4.34 5.66 4 6 C3.76636119 7.84891946 3.58696365 9.70488031 3.4375 11.5625 C3.35371094 12.57441406 3.26992187 13.58632812 3.18359375 14.62890625 C3.12300781 15.41136719 3.06242187 16.19382812 3 17 C2.67 17 2.34 17 2 17 C1.93941406 16.02417969 1.87882812 15.04835938 1.81640625 14.04296875 C1.73261719 12.77066406 1.64882812 11.49835938 1.5625 10.1875 C1.48128906 8.92292969 1.40007812 7.65835937 1.31640625 6.35546875 C1.12815453 3.00818107 1.12815453 3.00818107 0 0 Z " fill="#181719" transform="translate(1060,1281)"/>
<path d="M0 0 C0.66 0 1.32 0 2 0 C3.32 2.64 4.64 5.28 6 8 C3.03 8 0.06 8 -3 8 C-3 7.34 -3 6.68 -3 6 C-2.01 5.67 -1.02 5.34 0 5 C0 3.35 0 1.7 0 0 Z " fill="#232326" transform="translate(780,1307)"/>
<path d="M0 0 C0.66 0 1.32 0 2 0 C2 2.97 2 5.94 2 9 C0.02 9.99 0.02 9.99 -2 11 C-1.85892253 9.54119891 -1.71197585 8.08296449 -1.5625 6.625 C-1.48128906 5.81289062 -1.40007813 5.00078125 -1.31640625 4.1640625 C-1 2 -1 2 0 0 Z " fill="#2A2A2E" transform="translate(1024,1287)"/>
<path d="M0 0 C0.66 0 1.32 0 2 0 C2 2.97 2 5.94 2 9 C0.68 9.33 -0.64 9.66 -2 10 C-1.85950482 8.52031676 -1.71245174 7.04125484 -1.5625 5.5625 C-1.48128906 4.73878906 -1.40007812 3.91507813 -1.31640625 3.06640625 C-1 1 -1 1 0 0 Z " fill="#252528" transform="translate(1192,1287)"/>
<path d="M0 0 C1.98 0 3.96 0 6 0 C6 2.97 6 5.94 6 9 C5.34 9 4.68 9 4 9 C3.525625 7.88625 3.05125 6.7725 2.5625 5.625 C1.74693537 3.73289006 0.92143645 1.84287291 0 0 Z " fill="#2F2F33" transform="translate(1129,1282)"/>
<path d="M0 0 C0.66 0.33 1.32 0.66 2 1 C-2 5 -6 9 -10 13 C-10.66 12.67 -11.32 12.34 -12 12 C-8.27653164 7.57905197 -4.70478962 3.42166518 0 0 Z " fill="#A4AD85" transform="translate(719,1104)"/>
<path d="M0 0 C3.625 0.375 3.625 0.375 6.0625 2.375 C6.8359375 3.365 6.8359375 3.365 7.625 4.375 C5.8125 5 5.8125 5 3.625 5.375 C2.635 4.715 1.645 4.055 0.625 3.375 C-1.3646995 2.98486284 -3.36519869 2.64297351 -5.375 2.375 C-3.375 0.375 -3.375 0.375 0 0 Z " fill="#4E4B4D" transform="translate(1221.375,1280.625)"/>
<path d="M0 0 C0.66 0 1.32 0 2 0 C1.03519209 2.15226381 0.27130555 3.75695544 -1.5 5.34375 C-3.37054431 7.40914267 -3.67539767 8.96941841 -4.1875 11.6875 C-4.34605469 12.49574219 -4.50460937 13.30398438 -4.66796875 14.13671875 C-4.77753906 14.75160156 -4.88710937 15.36648438 -5 16 C-5.33 16 -5.66 16 -6 16 C-6.44539877 7.2404908 -6.44539877 7.2404908 -3 3 C-2.34 3 -1.68 3 -1 3 C-0.67 2.01 -0.34 1.02 0 0 Z " fill="#E9EBE3" transform="translate(1209,1111)"/>
<path d="M0 0 C-0.33 0.99 -0.66 1.98 -1 3 C-1.99 3 -2.98 3 -4 3 C-1.525 5.97 -1.525 5.97 1 9 C-1.31 8.34 -3.62 7.68 -6 7 C-6.33 5.68 -6.66 4.36 -7 3 C-2.25 0 -2.25 0 0 0 Z " fill="#A7B38B" transform="translate(857,898)"/>
<path d="M0 0 C0.66 0.33 1.32 0.66 2 1 C-1.96 5.29 -5.92 9.58 -10 14 C-10.66 13.67 -11.32 13.34 -12 13 C-8.04 8.71 -4.08 4.42 0 0 Z " fill="#9CA880" transform="translate(1029,715)"/>
<path d="M0 0 C0.33 0 0.66 0 1 0 C1 2.31 1 4.62 1 7 C1.66 7 2.32 7 3 7 C3 7.66 3 8.32 3 9 C0.69 9 -1.62 9 -4 9 C-4 8.34 -4 7.68 -4 7 C-3.34 7 -2.68 7 -2 7 C-1.34 4.69 -0.68 2.38 0 0 Z " fill="#4D4E50" transform="translate(759,1306)"/>
<path d="M0 0 C0.33 0 0.66 0 1 0 C1.06058594 0.68707031 1.12117187 1.37414063 1.18359375 2.08203125 C1.26738281 2.98308594 1.35117187 3.88414063 1.4375 4.8125 C1.51871094 5.70582031 1.59992187 6.59914063 1.68359375 7.51953125 C1.93489767 10.12743559 1.93489767 10.12743559 3 13 C0.69 13 -1.62 13 -4 13 C-4 12.34 -4 11.68 -4 11 C-2.68 10.67 -1.36 10.34 0 10 C0 6.7 0 3.4 0 0 Z " fill="#4D4E50" transform="translate(800,1302)"/>
<path d="M0 0 C0.99 0.495 0.99 0.495 2 1 C2 1.66 2 2.32 2 3 C2.99 3 3.98 3 5 3 C5 3.99 5 4.98 5 6 C5.99 6 6.98 6 8 6 C8 6.99 8 7.98 8 9 C4.86493389 8.66410006 3.974751 7.97334828 1.75 5.625 C0 3 0 3 0 0 Z " fill="#181719" transform="translate(1081,1305)"/>
<path d="M0 0 C3.625 -0.1875 3.625 -0.1875 7 0 C4 2 4 2 2 3 C1.855625 3.804375 1.71125 4.60875 1.5625 5.4375 C1 8 1 8 -2 10 C-2.25 3.375 -2.25 3.375 0 0 Z " fill="#3B393B" transform="translate(887,1282)"/>
<path d="M0 0 C0.33 1.32 0.66 2.64 1 4 C-1.93828597 6.50298434 -4.17902761 7.46930939 -8 8 C-8 9.98 -8 11.96 -8 14 C-8.33 14 -8.66 14 -9 14 C-9.3125 10.6875 -9.3125 10.6875 -9 7 C-6.15739513 4.61835808 -4.71594733 4 -1 4 C-0.67 2.68 -0.34 1.36 0 0 Z " fill="#AEB390" transform="translate(1134,1177)"/>
<path d="M0 0 C0.33 0 0.66 0 1 0 C1.33 2.97 1.66 5.94 2 9 C0.02 9 -1.96 9 -4 9 C-4 6 -4 6 -2.5625 4.5 C-2.046875 4.005 -1.53125 3.51 -1 3 C-0.67 2.01 -0.34 1.02 0 0 Z " fill="#3F3E44" transform="translate(963,1306)"/>
<path d="M0 0 C0.33 0 0.66 0 1 0 C1.06058594 0.61488281 1.12117188 1.22976563 1.18359375 1.86328125 C1.26738281 2.67152344 1.35117188 3.47976563 1.4375 4.3125 C1.51871094 5.11300781 1.59992188 5.91351562 1.68359375 6.73828125 C1.95265693 9.16087179 1.95265693 9.16087179 3 12 C0.03 12 -2.94 12 -6 12 C-6 11.34 -6 10.68 -6 10 C-3.03 10.495 -3.03 10.495 0 11 C-0.2784375 10.2265625 -0.2784375 10.2265625 -0.5625 9.4375 C-1.15419517 6.14091261 -0.567267 3.27754265 0 0 Z " fill="#49484C" transform="translate(1174,1303)"/>
<path d="M0 0 C0.33 0 0.66 0 1 0 C1.29296875 6.0546875 1.29296875 6.0546875 1 8 C-2.22791555 10.1519437 -3.28400809 10.20086443 -7 10 C-6.21625 9.46375 -5.4325 8.9275 -4.625 8.375 C-1.66573701 5.69757158 -0.95391744 3.81566975 0 0 Z " fill="#151517" transform="translate(906,1304)"/>
<path d="M0 0 C3.7910119 1.44950455 7.3874638 3.15172566 11 5 C11 5.33 11 5.66 11 6 C7.14521782 6.35858439 5.42240542 6.2754818 2.125 4.125 C1.42375 3.42375 0.7225 2.7225 0 2 C0 1.34 0 0.68 0 0 Z " fill="#1F1D23" transform="translate(1246,1308)"/>
<path d="M0 0 C2.74277578 3.19990508 4.6302836 6.00499382 6 10 C2.2047869 8.50902342 0.38957269 6.24299151 -2 3 C-1.34 2.01 -0.68 1.02 0 0 Z " fill="#282728" transform="translate(1066,1283)"/>
<path d="M0 0 C-0.33 3.63 -0.66 7.26 -1 11 C-1.66 11 -2.32 11 -3 11 C-3 7.7 -3 4.4 -3 1 C-1 0 -1 0 0 0 Z " fill="#0F0D15" transform="translate(1246,1290)"/>
<path d="M0 0 C1.32 0 2.64 0 4 0 C3.34 5.28 2.68 10.56 2 16 C1.67 16 1.34 16 1 16 C0.67 10.72 0.34 5.44 0 0 Z " fill="#16161F" transform="translate(1171,1282)"/>
<path d="M0 0 C2.31 0 4.62 0 7 0 C6.52433594 0.81210938 6.52433594 0.81210938 6.0390625 1.640625 C4.81692026 4.4157149 4.59056564 6.73208098 4.375 9.75 C4.30023437 10.73484375 4.22546875 11.7196875 4.1484375 12.734375 C4.09945312 13.48203125 4.05046875 14.2296875 4 15 C3.67 15 3.34 15 3 15 C3 10.38 3 5.76 3 1 C2.01 0.67 1.02 0.34 0 0 Z " fill="#13131D" transform="translate(1001,1282)"/>
<path d="M0 0 C3.3 0.99 6.6 1.98 10 3 C6.8035914 4.06546953 4.34252724 4.07427838 1 4 C1 5.65 1 7.3 1 9 C0.67 9 0.34 9 0 9 C0 6.03 0 3.06 0 0 Z " fill="#A4AE8D" transform="translate(948,783)"/>
<path d="M0 0 C1.5 1.375 1.5 1.375 3 3 C3 3.66 3 4.32 3 5 C0.36 5 -2.28 5 -5 5 C-5 4.34 -5 3.68 -5 3 C-2.5 1.375 -2.5 1.375 0 0 Z " fill="#3B3A3E" transform="translate(1043,1311)"/>
<path d="M0 0 C4.75 0.75 4.75 0.75 7 3 C7 4.32 7 5.64 7 7 C6.34 7 5.68 7 5 7 C5 6.01 5 5.02 5 4 C4.360625 3.896875 3.72125 3.79375 3.0625 3.6875 C2.381875 3.460625 1.70125 3.23375 1 3 C0.67 2.01 0.34 1.02 0 0 Z " fill="#151516" transform="translate(797,1281)"/>
<path d="M0 0 C4.95 0 9.9 0 15 0 C15 0.33 15 0.66 15 1 C9.06 1.495 9.06 1.495 3 2 C2.34 3.65 1.68 5.3 1 7 C0.67 7 0.34 7 0 7 C0 4.69 0 2.38 0 0 Z " fill="#959B7B" transform="translate(1126,1101)"/>
<path d="M0 0 C0.66 0 1.32 0 2 0 C2.33 1.98 2.66 3.96 3 6 C2.67 5.34 2.34 4.68 2 4 C-0.64 4.66 -3.28 5.32 -6 6 C-4 4 -2 2 0 0 Z " fill="#A5B18B" transform="translate(996,894)"/>
<path d="M0 0 C0.66 0 1.32 0 2 0 C2 3.3 2 6.6 2 10 C1.01 10 0.02 10 -1 10 C-0.67 6.7 -0.34 3.4 0 0 Z " fill="#17181D" transform="translate(1133,1303)"/>
<path d="M0 0 C0.33 0 0.66 0 1 0 C1 1.65 1 3.3 1 5 C1.66 5 2.32 5 3 5 C2.67 6.65 2.34 8.3 2 10 C0.68 9.67 -0.64 9.34 -2 9 C-1.34 6.03 -0.68 3.06 0 0 Z " fill="#2A292F" transform="translate(870,1296)"/>
<path d="M0 0 C0.99 0.33 1.98 0.66 3 1 C1.38405168 3.04119788 -0.2856382 5.04072937 -2 7 C-2.66 7 -3.32 7 -4 7 C-2.92598892 4.08482708 -2.22189824 2.22189824 0 0 Z " fill="#1E1D20" transform="translate(1226,1291)"/>
<path d="M0 0 C0.66 0.99 1.32 1.98 2 3 C1.01 4.485 1.01 4.485 0 6 C-0.68177416 7.32567199 -1.35191436 8.65753688 -2 10 C-2.66 10 -3.32 10 -4 10 C-2.8905928 6.51329166 -1.73662334 3.22515763 0 0 Z " fill="#A2A780" transform="translate(671,1116)"/>
<path d="M0 0 C0.66 0.33 1.32 0.66 2 1 C-2.455 3.97 -2.455 3.97 -7 7 C-7 6.01 -7 5.02 -7 4 C-1.7265625 0.77734375 -1.7265625 0.77734375 0 0 Z " fill="#9CA87F" transform="translate(1060,833)"/>
<path d="M0 0 C3.465 1.98 3.465 1.98 7 4 C7 4.33 7 4.66 7 5 C1.46153846 5.36923077 1.46153846 5.36923077 -0.875 3.5 C-1.24625 3.005 -1.6175 2.51 -2 2 C-1.34 2 -0.68 2 0 2 C0 1.34 0 0.68 0 0 Z " fill="#2B2830" transform="translate(927,1309)"/>
<path d="M0 0 C0.66 0.33 1.32 0.66 2 1 C2 3.64 2 6.28 2 9 C1.34 9 0.68 9 0 9 C-0.87890625 2.84765625 -0.87890625 2.84765625 -1 1 C-0.67 0.67 -0.34 0.34 0 0 Z " fill="#020204" transform="translate(871,1292)"/>
<path d="M0 0 C1.32 0.33 2.64 0.66 4 1 C3.34 3.31 2.68 5.62 2 8 C1.34 8 0.68 8 0 8 C0 5.36 0 2.72 0 0 Z " fill="#899564" transform="translate(897,1101)"/>
<path d="M0 0 C2.01920337 1.30406884 4.01924973 2.63823419 6 4 C6 4.33 6 4.66 6 5 C3.6568787 4.74438677 1.32156597 4.40729228 -1 4 C-1.33 3.34 -1.66 2.68 -2 2 C-1.34 2 -0.68 2 0 2 C0 1.34 0 0.68 0 0 Z " fill="#2E2D32" transform="translate(1111,1309)"/>
<path d="M0 0 C2 1 4 2 6 3 C6 3.99 6 4.98 6 6 C4.125 5.8125 4.125 5.8125 2 5 C0.75 2.4375 0.75 2.4375 0 0 Z " fill="#0F0F12" transform="translate(820,1308)"/>
<path d="M0 0 C0.66 0 1.32 0 2 0 C2.33 2.97 2.66 5.94 3 9 C2.34 8.67 1.68 8.34 1 8 C0.40644386 5.35139573 0.25790731 2.70802678 0 0 Z " fill="#242526" transform="translate(774,1291)"/>
<path d="M0 0 C0.66 0 1.32 0 2 0 C2 0.66 2 1.32 2 2 C2.66 2 3.32 2 4 2 C4 2.99 4 3.98 4 5 C2.35 4.67 0.7 4.34 -1 4 C-0.67 2.68 -0.34 1.36 0 0 Z " fill="#49474A" transform="translate(1062,1311)"/>
<path d="M0 0 C0.99 0 1.98 0 3 0 C2.67 3.63 2.34 7.26 2 11 C1.67 11 1.34 11 1 11 C0.67 7.37 0.34 3.74 0 0 Z " fill="#19181B" transform="translate(920,1291)"/>
<path d="M0 0 C0.598125 0.20625 1.19625 0.4125 1.8125 0.625 C0.636875 1.305625 0.636875 1.305625 -0.5625 2 C-3.22448031 3.50928742 -3.22448031 3.50928742 -5.1875 5.625 C-5.1875 4.305 -5.1875 2.985 -5.1875 1.625 C-2.1875 -0.375 -2.1875 -0.375 0 0 Z " fill="#2D2F30" transform="translate(1115.1875,1282.375)"/>
<path d="M0 0 C1.98 0 3.96 0 6 0 C5.67 2.31 5.34 4.62 5 7 C4.731875 6.360625 4.46375 5.72125 4.1875 5.0625 C3.11332248 2.66868314 3.11332248 2.66868314 0 2 C0 1.34 0 0.68 0 0 Z " fill="#33363A" transform="translate(723,1281)"/>
<path d="M0 0 C2.31 0 4.62 0 7 0 C6.67 0.99 6.34 1.98 6 3 C5.01 2.67 4.02 2.34 3 2 C2.67 2.66 2.34 3.32 2 4 C1.34 2.68 0.68 1.36 0 0 Z " fill="#38393E" transform="translate(1085,1281)"/>
<path d="M0 0 C2.97 0 5.94 0 9 0 C5.71299843 1.64350079 3.52069985 2.41321669 0 3 C0 2.01 0 1.02 0 0 Z " fill="#8B996A" transform="translate(609,1101)"/>
<path d="M0 0 C0 0.66 0 1.32 0 2 C-2.31 2 -4.62 2 -7 2 C-7 1.34 -7 0.68 -7 0 C-4.3333581 -1.33332095 -2.83319697 -0.67102033 0 0 Z " fill="#37373B" transform="translate(730,1313)"/>
<path d="M0 0 C1.485 0.99 1.485 0.99 3 2 C2.67 4.64 2.34 7.28 2 10 C1.67 10 1.34 10 1 10 C0.67 6.7 0.34 3.4 0 0 Z " fill="#2F2F32" transform="translate(978,1291)"/>
<path d="M0 0 C2.475 0.495 2.475 0.495 5 1 C5.33 1.99 5.66 2.98 6 4 C4.35 3.67 2.7 3.34 1 3 C0.67 2.01 0.34 1.02 0 0 Z " fill="#1D1E20" transform="translate(1060,1281)"/>
</svg>
